<?xml version="1.0" encoding="UTF-8"?>
<svg id="Layer_2" data-name="Layer 2" xmlns="http://www.w3.org/2000/svg" viewBox="0 0 149.22 149.22">
  <defs>
    <style>
      .cls-1 {
        fill: #09ee7d;
      }
    </style>
  </defs>
  <g id="Layer_1-2" data-name="Layer 1">
    <g>
      <circle class="cls-1" cx="74.61" cy="74.61" r="74.61"/>
      <path d="M105.43,42.49h-41.43c-4.47,0-8.09,3.62-8.09,8.09s3.62,8.09,8.09,8.09h21.54l-25.47,25.47h-19.85c-4.47,0-8.09,3.62-8.09,8.09s3.62,8.09,8.09,8.09h23.13s.02,0,.03,0c2.08,0,4.17-.78,5.75-2.37l28.2-28.2v22.48c0,4.47,3.62,8.09,8.09,8.09h0c4.47,0,8.09-3.62,8.09-8.09v-41.64c0-4.47-3.62-8.09-8.09-8.09Z"/>
    </g>
  </g>
</svg>