<?xml version="1.0" encoding="UTF-8"?>
<svg id="Layer_2" data-name="Layer 2" xmlns="http://www.w3.org/2000/svg" viewBox="0 0 149.22 149.22">
  <defs>
    <style>
      .cls-1 {
        fill: #ef25b8;
      }
    </style>
  </defs>
  <g id="Layer_1-2" data-name="Layer 1">
    <g>
      <circle class="cls-1" cx="74.61" cy="74.61" r="74.61"/>
      <path d="M113.34,53.61c.97,1.17-1.38,3.1-1.99,4.07-6.27,10.03,1.51,18,2.72,27.54,5.15,40.51-54.79,55.5-75.11,21.17-6.36-10.74-5.75-28.48,4.5-36.74,3.14-2.52,2.51,1.03,3.03,3.05,1.22,4.72,4.33,8.66,9.76,7.64,6.25-1.17-.54-9.83-1.74-12.63-6.3-14.79,4.18-29.32,14.19-39.36,2.01-2.01,14.3-12.88,16.32-12.65.31.04.44.1.55.4.29.75-1.51,7-1.76,8.44-2.2,12.82-.06,27.76,8.91,37.63,2.86-7.27,10.05-10.85,17.68-9.5.55.1,2.64.6,2.92.93ZM50.36,90.44c-2.4,21.91,30.69,29.6,41.05,11.98,11.21-19.07-14.49-29.29-17.4-45.33-.44-2.43-.39-4.84-.31-7.28-5.43,6.18-8.01,13.24-6.69,21.52.88,5.55,4.45,9.37,2.61,15.37-2.53,8.25-13.48,9.12-19.26,3.74Z"/>
    </g>
  </g>
</svg>