<?xml version="1.0" encoding="UTF-8"?>
<svg id="Layer_2" data-name="Layer 2" xmlns="http://www.w3.org/2000/svg" viewBox="0 0 149.22 149.22">
  <defs>
    <style>
      .cls-1 {
        fill: #f8f8f8;
      }

      .cls-2 {
        fill: #0875f2;
      }
    </style>
  </defs>
  <g id="Layer_1-2" data-name="Layer 1">
    <g>
      <circle class="cls-2" cx="74.61" cy="74.61" r="74.61"/>
      <path class="cls-1" d="M109.7,38.65H41.52c-7.28,0-13.18,5.9-13.18,13.18v42.04c0,7.28,5.9,13.18,13.18,13.18h16.58l14.92,14.92c1.17,1.17,3.07,1.17,4.24,0l14.92-14.92h17.51c7.28,0,13.18-5.9,13.18-13.18v-42.04c0-7.28-5.9-13.18-13.18-13.18ZM75.61,96.26c-14.15-12.18-25.94-20.6-25.94-33.52,0-4.88,3.98-13.28,14.28-13.28,8.04,0,11.67,8.04,11.67,8.04,0,0,3.59-8.04,11.67-8.04,10.3,0,14.28,8.4,14.28,13.28,0,12.92-11.8,21.35-25.94,33.52Z"/>
    </g>
  </g>
</svg>