<?xml version="1.0" encoding="UTF-8"?>
<svg id="Layer_2" data-name="Layer 2" xmlns="http://www.w3.org/2000/svg" viewBox="0 0 149.22 149.22">
  <defs>
    <style>
      .cls-1 {
        fill: #f4c51b;
      }
    </style>
  </defs>
  <g id="Layer_1-2" data-name="Layer 1">
    <g>
      <circle class="cls-1" cx="74.61" cy="74.61" r="74.61"/>
      <g>
        <g>
          <path d="M109.81,110.73c-31.48,31.15-85.01,8.45-85.76-35.39-.73-42.71,48.62-66.59,82.04-40.31,24.13,18.98,25.39,54.24,3.71,75.7ZM74,30.71c-36.55.5-56.53,42.99-33.43,71.49,20.37,25.13,60.18,20.25,73.76-8.99,13.76-29.63-7.83-62.94-40.34-62.5Z"/>
          <path d="M48.53,80.45c3.18-.27,3.93,4.47,5.52,6.86,9.23,13.89,33.04,13.5,41.65-.94,1.15-1.93,1.93-6.02,4.58-5.91,6.84.29.39,9.52-1.48,11.84-12.9,16.11-39.48,14.64-50.46-2.82-1.5-2.39-4.96-8.6.19-9.03Z"/>
          <path d="M58.66,55.69c8.71-1.52,9.11,17.6,1.12,17.87-7.43.25-7.8-16.71-1.12-17.87Z"/>
        </g>
        <polygon points="100.85 56.23 81.8 59.17 81.8 62.12 81.8 65.5 81.8 68.45 100.85 71.39 100.85 65.06 92.73 63.81 100.85 62.56 100.85 56.23"/>
      </g>
    </g>
  </g>
</svg>