<svg xmlns="http://www.w3.org/2000/svg" viewBox="0 0 370.88 131.41"><defs><style>.cls-1{fill:#fff;}</style></defs><g id="Layer_2" data-name="Layer 2"><g id="Layer_1-2" data-name="Layer 1"><path class="cls-1" d="M7.63,92.54H20.2c7.58,0,13.51,2.82,13.51,10.45,0,11.16-8.4,15.27-18,15.27H11.86L9.4,130.71H0Zm9.22,18.32c4.82,0,7.58-2.23,7.58-6.46,0-3.05-2.06-4.46-5.52-4.46H15.5l-2.11,10.92Z"/><path class="cls-1" d="M48.82,122H38.31l-3.94,8.69H24L44,92.54H55.28l3.64,38.17H49.05Zm-.24-7-.11-4.46c-.12-3.64-.24-7.05-.24-10.93H48c-1.53,3.76-2.82,7.29-4.47,10.93l-2,4.46Z"/><path class="cls-1" d="M78.71,92.54c7.63,0,13.51,2.7,13.51,10.1,0,7.1-3.88,11.39-9.22,13.45l5.69,14.62H78.83l-4.41-13.16H70.49L67.9,130.71H58.51l7.63-38.17ZM72,110.16h3.4c5,0,7.52-2.47,7.52-6.11,0-2.82-2-4.11-5.52-4.11H74Z"/><path class="cls-1" d="M98.57,92.54h23.26l-1.53,7.87h-14L105,107.1H116.9L115.37,115H103.51l-1.65,7.87h14.45l-1.53,7.87H90.94Z"/><path class="cls-1" d="M124.65,92.54h9L139,110.63l1.88,8.57h.24c.35-4.11.59-9.87,1.53-14.45l2.46-12.21H154l-7.64,38.17h-9l-5.28-18.09-1.77-8.57h-.23a124.22,124.22,0,0,1-1.65,14.33l-2.46,12.33H117Z"/><path class="cls-1" d="M164.91,100.41h-9.63l1.52-7.87h28.66l-1.53,7.87H174.3l-6,30.3h-9.39Z"/><path class="cls-1" d="M200.3,92.54h12.57c7.58,0,13.51,2.82,13.51,10.45,0,11.16-8.4,15.27-18,15.27h-3.88l-2.47,12.45h-9.39Zm9.22,18.32c4.82,0,7.58-2.23,7.58-6.46,0-3.05-2.06-4.46-5.52-4.46h-3.41l-2.11,10.92Z"/><path class="cls-1" d="M224.14,115.21c0-14.22,9.63-23.38,19.73-23.38,8.81,0,14.8,5.88,14.8,16.21,0,14.21-9.63,23.37-19.74,23.37C230.13,131.41,224.14,125.54,224.14,115.21Zm9.63-.59c0,5.52,2.11,8.69,5.63,8.69,4.35,0,9.64-5.87,9.64-14.68,0-5.52-2.12-8.69-5.64-8.69C239.05,99.94,233.77,105.81,233.77,114.62Z"/><path class="cls-1" d="M277.77,92.54c7.64,0,13.51,2.7,13.51,10.1,0,7.1-3.88,11.39-9.22,13.45l5.69,14.62h-9.86l-4.41-13.16h-3.93L267,130.71h-9.4l7.63-38.17Zm-6.69,17.62h3.4c5,0,7.52-2.47,7.52-6.11,0-2.82-2-4.11-5.52-4.11h-3.41Z"/><path class="cls-1" d="M302,100.41h-9.63l1.53-7.87h28.65l-1.52,7.87h-9.63l-6,30.3h-9.4Z"/><path class="cls-1" d="M333.54,122H323l-3.93,8.69H308.76l20-38.17H340l3.64,38.17h-9.86Zm-.23-7-.12-4.46c-.12-3.64-.24-7.05-.24-10.93h-.23c-1.53,3.76-2.82,7.29-4.46,10.93l-2,4.46Z"/><path class="cls-1" d="M353.73,92.54h9.4L357,122.84h13.86l-1.53,7.87H346.1Z"/><path class="cls-1" d="M185.44,83.49l-2.05-1.2c-36.5-21.3-34.14-60.16-33.75-64.52l.21-2.42L185.44,0,221,15.35l.21,2.42c.39,4.36,2.75,43.22-33.75,64.52ZM157.63,20.87c-.24,8.73,1.25,36.33,27.81,53.14C212,57.2,213.49,29.6,213.25,20.87l-27.81-12Z"/><path class="cls-1" d="M193,51.4a16,16,0,1,0-15.1,0A16.08,16.08,0,0,0,170,61.14l15.4,15.6,15.4-15.6A16.08,16.08,0,0,0,193,51.4Z"/></g></g></svg>