<svg xmlns="http://www.w3.org/2000/svg" viewBox="0 0 232.79 142.04"><defs><style>.cls-1{fill:#fff;}.cls-2{opacity:0.7;}</style></defs><g id="Layer_2" data-name="Layer 2"><g id="Layer_1-2" data-name="Layer 1"><path class="cls-1" d="M116.4,91.14l-12-8.71H89.61L85,68.35l-12-8.7,4.57-14.08L73.06,31.49l12-8.71L89.61,8.7h14.81l12-8.7,12,8.7h14.81l4.58,14.08,12,8.71-4.58,14.08,4.58,14.08-12,8.7-4.58,14.08H128.37ZM96,73.65h11.27l9.13,6.62,9.12-6.62H136.8l3.48-10.73,9.12-6.63-3.48-10.72,3.48-10.73-9.12-6.62L136.8,17.49H125.52l-9.12-6.63-9.13,6.63H96L92.51,28.22l-9.12,6.62,3.48,10.73L83.39,56.29l9.12,6.63Z"/><path class="cls-1" d="M109.46,63.66,93.89,48.09a.59.59,0,0,1,0-.83l5.38-5.38a.59.59,0,0,1,.83,0l9.36,9.35a.59.59,0,0,0,.83,0l20.64-20.65a.6.6,0,0,1,.83,0L137.15,36a.59.59,0,0,1,0,.83L110.29,63.66A.59.59,0,0,1,109.46,63.66Z"/><path class="cls-1" d="M7.15,128.56c2.13,2.94,5.39,4.95,8.53,4.95,2.88,0,4.76-1.32,4.76-3.57,0-1.82-1.81-2.64-4.64-4.39l-3.51-2.2c-3.76-2.38-6-5.33-6-10.41,0-7.34,6.71-13.17,15-13.17a16.79,16.79,0,0,1,12.67,6.34L27.66,112c-2.07-2.07-4.14-3.57-6.78-3.57-2.88,0-4.32,1.56-4.32,3.51,0,1.69,1.75,2.44,5,4.51l3.77,2.32c3.95,2.39,5.51,5,5.51,9.72C30.85,136,24.71,142,14.93,142,9.72,142,4.26,139.91,0,134.2Z"/><path class="cls-1" d="M54.18,132H43l-4.2,9.28h-11L49,100.52h12L65,141.29H54.43Zm-.25-7.53-.13-4.77c-.12-3.88-.25-7.52-.25-11.66H53.3c-1.63,4-3,7.78-4.77,11.66l-2.13,4.77Z"/><path class="cls-1" d="M74.37,100.52H99.21l-1.63,8.41H82.65L81,117.33H93.69l-1.63,8.41H79.39l-3.14,15.55h-10Z"/><path class="cls-1" d="M104.23,100.52h24.83l-1.63,8.41H112.5l-1.38,7.15h12.67l-1.63,8.4H109.49l-1.75,8.4h15.42l-1.63,8.41H96.07Z"/><g class="cls-2"><path class="cls-1" d="M135.33,100.52h24.84l-1.63,8.41H143.61l-1.63,8.4h12.67L153,125.74H140.35l-3.14,15.55h-10Z"/><path class="cls-1" d="M174.84,132H163.62l-4.2,9.28h-11l21.32-40.77h12l3.89,40.77H175.09Zm-.25-7.53-.12-4.77c-.13-3.88-.25-7.52-.25-11.66H174c-1.63,4-3,7.78-4.77,11.66l-2.13,4.77Z"/><path class="cls-1" d="M195,100.52h10.41l2.63,17.56L209,125h.26l3.57-6.9,9.53-17.56h10.41l-8.15,40.77h-9.41l2.89-13.55a143.19,143.19,0,0,1,4-14.3h-.19L216.86,123l-8.65,14.8h-3.76L201.81,123l-1.25-9.54h-.19a136.17,136.17,0,0,1-1.57,14.3L196,141.29h-9.15Z"/></g></g></g></svg>