<svg xmlns="http://www.w3.org/2000/svg" viewBox="0 0 334.71 152.06"><defs><style>.cls-1,.cls-3{fill:#fff;}.cls-2{opacity:0.7;}.cls-3{fill-rule:evenodd;}</style></defs><g id="Layer_2" data-name="Layer 2"><g id="Layer_1-2" data-name="Layer 1"><path class="cls-1" d="M0,109.55l5.55-4.38A8.69,8.69,0,0,0,12.18,109c2.24,0,3.7-1,3.7-2.78,0-1.41-1.42-2-3.61-3.41l-2.72-1.7C6.62,99.27,4.87,97,4.87,93c0-5.7,5.21-10.23,11.64-10.23a13.06,13.06,0,0,1,9.84,4.92l-4.87,4.58c-1.61-1.61-3.22-2.78-5.26-2.78-2.24,0-3.36,1.22-3.36,2.73,0,1.32,1.36,1.9,3.89,3.51l2.93,1.8c3.06,1.85,4.28,3.85,4.28,7.55,0,5.79-4.77,10.52-12.37,10.52A14.13,14.13,0,0,1,0,109.55Z"/><path class="cls-1" d="M27.76,104.24a35.44,35.44,0,0,1,.68-5.35L31.55,83.4h7.8l-3.41,17a23.38,23.38,0,0,0-.39,3.61c0,3.21,1,4.87,4.19,4.87,2.82,0,4.38-2.15,5.45-7.6l3.6-17.92h7.6l-3.6,17.73c-1.95,9.93-6,14.51-13.25,14.51C31.65,115.64,27.76,112,27.76,104.24Z"/><path class="cls-1" d="M61.65,83.4H72.07c6.28,0,11.2,2.34,11.2,8.67,0,9.25-7,12.66-14.9,12.66H65.15l-2,10.32h-7.8Zm7.64,15.19c4,0,6.28-1.85,6.28-5.35,0-2.54-1.7-3.71-4.57-3.71H68.17l-1.75,9.06Z"/><path class="cls-1" d="M88.72,83.4H108l-1.26,6.52H95.15l-1.07,5.56h9.83L102.65,102H92.81l-1.37,6.53h12l-1.27,6.52H82.39Z"/><path class="cls-1" d="M112.87,83.4h10.42c6.33,0,11.2,2.24,11.2,8.38a11.23,11.23,0,0,1-7.64,11.15l4.72,12.12h-8.18l-3.65-10.91h-3.27l-2.14,10.91h-7.79ZM120.56,98c4.19,0,6.24-2.05,6.24-5.07,0-2.33-1.66-3.41-4.58-3.41h-2.83L117.74,98Z"/><path class="cls-1" d="M146,83.4h9.35l3,31.65h-8.18l-.2-7.2h-8.71l-3.27,7.2h-8.57Zm-2,18.6h5.84l-.1-3.7c-.1-3-.19-5.84-.19-9.06h-.2c-1.26,3.12-2.33,6-3.7,9.06Z"/><path class="cls-1" d="M161.37,83.4h8l-1.26,14.32c-.35,3.31-.69,6.77-1.17,10.13h.19c1.27-3.36,2.78-6.87,4-10.13l6-14.32h6.47V97.72c-.09,3.21-.29,6.72-.48,10.13h.19c1.07-3.41,2.34-6.87,3.31-10.13l4.78-14.32h7.4l-12,31.65H177l.39-13.54c0-1.89.29-5,.53-7.35h-.19c-.83,2.34-1.85,4.92-2.78,7.35l-5.26,13.54H160Z"/><path class="cls-1" d="M201.59,83.4h19.28l-1.27,6.52H208l-1.07,5.56h9.84L215.51,102h-9.83l-1.37,6.53h12L215,115.05H195.25Z"/><path class="cls-1" d="M218.24,109.55l5.55-4.38a8.69,8.69,0,0,0,6.62,3.85c2.24,0,3.7-1,3.7-2.78,0-1.41-1.41-2-3.6-3.41l-2.73-1.7c-2.92-1.86-4.67-4.14-4.67-8.09,0-5.7,5.21-10.23,11.64-10.23a13,13,0,0,1,9.83,4.92l-4.87,4.58c-1.6-1.61-3.21-2.78-5.26-2.78-2.24,0-3.36,1.22-3.36,2.73,0,1.32,1.37,1.9,3.9,3.51l2.92,1.8c3.07,1.85,4.29,3.85,4.29,7.55,0,5.79-4.78,10.52-12.37,10.52A14.13,14.13,0,0,1,218.24,109.55Z"/><path class="cls-1" d="M245.12,102.2c0-11.79,8-19.39,16.36-19.39,7.3,0,12.27,4.87,12.27,13.45,0,11.78-8,19.38-16.36,19.38C250.08,115.64,245.12,110.77,245.12,102.2Zm20.64-5.46c0-4.58-1.75-7.21-4.67-7.21-3.61,0-8,4.87-8,12.18,0,4.58,1.76,7.21,4.68,7.21C261.38,108.92,265.76,104.05,265.76,96.74Z"/><path class="cls-1" d="M280.66,83.4h8.09l2,13.63.73,5.36h.2L294.49,97,301.9,83.4H310l-6.33,31.65h-7.31l2.24-10.52a112.87,112.87,0,0,1,3.12-11.1h-.14l-3.95,7.4-6.72,11.5H288l-2.05-11.5-1-7.4h-.15a104.61,104.61,0,0,1-1.22,11.1l-2.14,10.52h-7.11Z"/><path class="cls-1" d="M315.43,83.4h19.28l-1.26,6.52H321.86l-1.07,5.56h9.83L329.36,102h-9.84l-1.36,6.53h12l-1.27,6.52H309.1Z"/><g class="cls-2"><path class="cls-1" d="M168.59,119.33l-7.51,13.84-2.82,5.44h-.2l-.74-5.44-2.08-13.84H147l-6.43,32.13-3.07-32.13h-9.49l-14.83,28.36,2.87-14.92H104.42l-1.19,6.43H108l-1.19,5.34a5.26,5.26,0,0,1-2.77.79c-4.55,0-6.33-2.77-6.33-7.41,0-6.93,4.16-12.36,9.3-12.36a4.86,4.86,0,0,1,4.35,2.57l5.34-4.16a10,10,0,0,0-9.29-5.24c-10,0-17.8,8.21-17.8,19.68,0,8.7,5,13.65,13,13.65a17.76,17.76,0,0,0,9.85-3l-1.25,2.38h8.7l3.32-7.31h8.83l.21,7.31h15.53L150,140.78a107.85,107.85,0,0,0,1.24-11.27h.15l1,7.52,2.07,11.67h3L164.24,137l4-7.52h.15a110.93,110.93,0,0,0-3.17,11.27L163,151.46h7.41l6.43-32.13ZM126,138.21l1.71-3.75c1.38-3.07,2.47-6,3.75-9.2h.2c0,3.26.1,6.13.2,9.2l.11,3.75Z"/><polygon class="cls-1" points="181.35 119.33 174.92 151.46 182.83 151.46 189.26 119.33 181.35 119.33"/><path class="cls-1" d="M210.92,119.33l-2.08,10.28a112,112,0,0,0-1.29,12.16h-.19l-1.59-7.22-4.45-15.22h-7.61l-6.43,32.13h7.52l2.07-10.38A106,106,0,0,0,198.26,129h.2l1.48,7.22,4.45,15.22H212l6.43-32.13Z"/><path class="cls-1" d="M231.68,139.2h4.75l-1.19,5.34a5.26,5.26,0,0,1-2.77.79c-4.55,0-6.33-2.77-6.33-7.41,0-6.93,4.15-12.36,9.3-12.36a4.86,4.86,0,0,1,4.35,2.57l5.34-4.16a10,10,0,0,0-9.3-5.24c-10,0-17.8,8.21-17.8,19.68,0,8.7,5.05,13.65,13.06,13.65a17.63,17.63,0,0,0,10.38-3.36l3.06-15.93H232.87Z"/></g><path class="cls-3" d="M177.39,21.3c4,0,8.08,2,8.77,6.67.31,1.3,2.48,13.61,2.48,14.26a4.44,4.44,0,0,1-1.35,3.19A4.67,4.67,0,0,1,184,46.73a7.51,7.51,0,0,1-4.81-2.22L173,37.88h-10.8L156,44.51a7.14,7.14,0,0,1-4.81,2.22,4.6,4.6,0,0,1-4.66-4.5c0-.7,2.2-13,2.48-14.26.83-4.76,4.72-6.67,8.77-6.67ZM177,34.06a1.71,1.71,0,1,0,2.3-2.16,1.77,1.77,0,0,0-1.9.32A1.67,1.67,0,0,0,177,34.06Zm5.21-2.38A1.76,1.76,0,0,1,180.39,30a1.74,1.74,0,1,1,1.77,1.68ZM173.26,30A1.72,1.72,0,1,0,175,28.27a1.68,1.68,0,0,0-1.24.47A1.62,1.62,0,0,0,173.26,30Zm5.28-5.16a1.68,1.68,0,1,1-1.72,1.67A1.7,1.7,0,0,1,178.54,24.79Zm-20.46,6.05h2.3a1.28,1.28,0,1,0,0-2.56H158V26.06a1.31,1.31,0,0,0-2.61,0v2.22h-2.24a1.28,1.28,0,1,0,0,2.56h2.27v2.22a1.31,1.31,0,0,0,2.62,0Z"/><path class="cls-1" d="M167.59,70.27a35.14,35.14,0,1,1,35.13-35.13A35.17,35.17,0,0,1,167.59,70.27Zm0-63.31a28.18,28.18,0,1,0,28.18,28.18A28.21,28.21,0,0,0,167.59,7Z"/></g></g></svg>