<svg xmlns="http://www.w3.org/2000/svg" viewBox="0 0 487.15 95.01"><defs><style>.cls-1{fill:#111;}.cls-2{opacity:0.7;}</style></defs><g id="Layer_2" data-name="Layer 2"><g id="Layer_1-2" data-name="Layer 1"><path class="cls-1" d="M138.78,59.51H126.64l-4.54,10H110.17l23-44.07h13l4.21,44.07H139.05Zm-.27-8.14-.14-5.15c-.14-4.2-.27-8.14-.27-12.61h-.27c-1.77,4.34-3.26,8.41-5.15,12.61l-2.31,5.15Z"/><path class="cls-1" d="M155.22,25.47h11.12L164.57,45.4c-.47,4.62-.94,9.43-1.62,14.11h.27c1.76-4.68,3.86-9.56,5.56-14.11l8.34-19.93h9V45.4c-.13,4.48-.4,9.36-.67,14.11h.27c1.49-4.75,3.25-9.56,4.61-14.11L197,25.47h10.31L190.61,69.54h-13.7l.55-18.85c0-2.64.4-6.91.74-10.23h-.27c-1.15,3.25-2.58,6.84-3.86,10.23l-7.33,18.85H153.32Z"/><path class="cls-1" d="M206,25.47h26.85L231,34.56H214.91l-1.49,7.73h13.69l-1.76,9.08H211.66l-1.9,9.09h16.67l-1.76,9.08H197.15Z"/><path class="cls-1" d="M234,55.78c2.31,3.18,5.83,5.35,9.22,5.35,3.12,0,5.15-1.42,5.15-3.86,0-2-2-2.85-5-4.75l-3.8-2.37C235.44,47.57,233,44.39,233,38.9c0-7.94,7.26-14.24,16.21-14.24a18.13,18.13,0,0,1,13.69,6.85l-6.78,6.37c-2.24-2.24-4.47-3.86-7.32-3.86-3.12,0-4.68,1.69-4.68,3.79,0,1.83,1.9,2.65,5.42,4.88l4.07,2.51c4.27,2.58,6,5.36,6,10.51,0,8.07-6.65,14.64-17.22,14.64-5.63,0-11.53-2.3-16.14-8.47Z"/><path class="cls-1" d="M261.89,51.64c0-16.4,11.12-27,22.78-27,10.17,0,17.08,6.78,17.08,18.71,0,16.41-11.12,27-22.78,27C268.8,70.35,261.89,63.57,261.89,51.64ZM273,51c0,6.38,2.44,10,6.51,10,5,0,11.11-6.78,11.11-17,0-6.37-2.44-10-6.5-10C279.11,34,273,40.79,273,51Z"/><path class="cls-1" d="M309.23,25.47h11.26l2.85,19,1,7.45h.27l3.87-7.45,10.3-19h11.26l-8.82,44.07H331.06l3.12-14.64a154.21,154.21,0,0,1,4.34-15.46h-.2l-5.49,10.3-9.36,16H319.4l-2.84-16-1.36-10.3H315a150.63,150.63,0,0,1-1.7,15.46l-3,14.64h-9.9Z"/><path class="cls-1" d="M353.94,25.47h26.85L379,34.56H362.89l-1.49,7.73h13.69l-1.76,9.08h-13.7l-1.89,9.09h16.67l-1.76,9.08H345.13Z"/><g class="cls-2"><path class="cls-1" d="M433.25,25.47H422.94l-8,40.08L411.1,25.47h-13L375,69.54H387l4.54-10h12.13l.28,10h24.71c13.84,0,24.41-8.81,24.41-26.71C453,30.9,445.58,25.47,433.25,25.47Zm-38,25.9,2.3-5.15c1.9-4.2,3.39-8.27,5.16-12.61H403c0,4.47.13,8.41.27,12.61l.13,5.15Zm33.12,9.49h-1.62L432,34.15h1c5.16,0,8.95,2.44,8.95,9.36C441.92,56.25,435.69,60.86,428.36,60.86Z"/><path class="cls-1" d="M477.86,45.2l-4.07-2.51c-3.52-2.23-5.42-3-5.42-4.88,0-2.1,1.56-3.79,4.68-3.79,2.84,0,5.08,1.62,7.32,3.86l6.78-6.37a18.13,18.13,0,0,0-13.7-6.85c-8.95,0-16.2,6.3-16.2,14.24,0,5.49,2.44,8.67,6.51,11.25l3.8,2.37c3.05,1.9,5,2.78,5,4.75,0,2.44-2,3.86-5.15,3.86-3.39,0-6.92-2.17-9.22-5.35l-7.73,6.1c4.61,6.17,10.51,8.47,16.14,8.47,10.57,0,17.22-6.57,17.22-14.64C483.83,50.56,482.13,47.78,477.86,45.2Z"/></g><path class="cls-1" d="M47.51,95A47.51,47.51,0,1,1,95,47.51,47.56,47.56,0,0,1,47.51,95Zm0-85.6a38.1,38.1,0,1,0,38.1,38.1A38.14,38.14,0,0,0,47.51,9.41Z"/><path class="cls-1" d="M68.5,41.65l-17.1-.07a.63.63,0,0,1-.61-.78l5-20.58a.63.63,0,0,0-1.08-.57L26,52.32a.63.63,0,0,0,.47,1l17.1.07a.63.63,0,0,1,.61.78l-5,20.59a.63.63,0,0,0,1.08.56L69,42.69A.63.63,0,0,0,68.5,41.65Z"/></g></g></svg>