<svg xmlns="http://www.w3.org/2000/svg" viewBox="0 0 357.2 104.33"><defs><style>.cls-1{fill:#111;}.cls-2{opacity:0.5;}</style></defs><g id="Layer_2" data-name="Layer 2"><g id="Layer_1-2" data-name="Layer 1"><path class="cls-1" d="M116.42,30.13h10.85L124,46.81h.27l14.44-16.68h11.8L134.59,48.71l9.77,25.49H133.1l-6.51-18.71L120.9,62l-2.44,12.2H107.61Z"/><path class="cls-1" d="M149.51,30.13h11.12l-1.76,19.93c-.47,4.62-1,9.43-1.63,14.11h.27c1.77-4.68,3.87-9.56,5.56-14.11l8.34-19.93h9V50.06c-.14,4.48-.41,9.36-.68,14.11H180c1.49-4.75,3.26-9.56,4.61-14.11l6.65-19.93h10.3L184.9,74.2H171.21l.54-18.85c0-2.64.41-6.91.75-10.23h-.27c-1.16,3.25-2.58,6.84-3.87,10.23L161,74.2H147.62Z"/><path class="cls-1" d="M201.54,60.44c2.3,3.18,5.83,5.35,9.22,5.35,3.11,0,5.15-1.42,5.15-3.86,0-2-2-2.85-5-4.75l-3.8-2.37c-4.06-2.58-6.5-5.76-6.5-11.25,0-7.94,7.25-14.24,16.2-14.24a18.13,18.13,0,0,1,13.69,6.85l-6.78,6.37c-2.23-2.24-4.47-3.86-7.32-3.86-3.12,0-4.68,1.69-4.68,3.79,0,1.83,1.9,2.65,5.43,4.88l4.07,2.51c4.27,2.58,6,5.36,6,10.51,0,8.07-6.64,14.64-17.22,14.64-5.63,0-11.52-2.3-16.13-8.47Z"/><path class="cls-1" d="M45,104.33l-2.57-1.5C-3.22,76.21-.27,27.65.21,22.2l.27-3L45,0,89.42,19.18l.27,3c.48,5.45,3.43,54-42.17,80.63ZM10.19,26.08C9.9,37,11.77,71.47,45,92.48,78.13,71.47,80,37,79.71,26.08L45,11.09Z"/><path class="cls-1" d="M57.8,36.05A16.91,16.91,0,0,0,41,31.65a1.55,1.55,0,0,0-.66,2.58l8.56,8.56a1.53,1.53,0,0,1,0,2.17L42.6,51.25a1.55,1.55,0,0,1-2.18,0L31.87,42.7a1.55,1.55,0,0,0-2.58.67,17.29,17.29,0,0,0,4.39,16.8,17.59,17.59,0,0,0,17.38,4.12,1.49,1.49,0,0,1,1.5.37L66.34,78.13a1.54,1.54,0,0,0,2.21-.06l7.3-7.95A1.54,1.54,0,0,0,75.79,68l-13.45-13A1.51,1.51,0,0,1,62,53.39,16.86,16.86,0,0,0,57.8,36.05Z"/><g class="cls-2"><path class="cls-1" d="M250.9,30h4.2v7.58h.09L260.72,30h4.58l-5.6,7.38,6.65,11.14h-4.6l-4.49-7.81-2.16,2.84v5h-4.2Z"/><path class="cls-1" d="M267.08,30h4.2V48.56h-4.2Z"/><path class="cls-1" d="M273.42,30h5.22c5.68,0,9.32,2.81,9.32,9.17s-3.64,9.35-9.06,9.35h-5.48Zm5,15.14c3.12,0,5.25-1.54,5.25-6s-2.13-5.79-5.25-5.79h-.8V45.18Z"/><path class="cls-1" d="M290.94,43.36a7.41,7.41,0,0,0,4.55,1.93c1.73,0,2.58-.68,2.58-1.79S297,42,295.4,41.29l-2.38-1a5.36,5.36,0,0,1-3.75-5c0-3.07,2.75-5.51,6.59-5.51a8.56,8.56,0,0,1,6,2.44l-2.1,2.64a6.06,6.06,0,0,0-3.86-1.47c-1.42,0-2.36.62-2.36,1.67s1.22,1.53,2.84,2.19l2.36,1c2.24.91,3.66,2.42,3.66,5,0,3.07-2.56,5.74-7,5.74a10.26,10.26,0,0,1-6.87-2.67Z"/><path class="cls-1" d="M306.17,30h4.28l1.28,8.66c.26,1.93.51,3.89.77,5.85h.11c.34-2,.71-3.92,1.08-5.85l2-8.66h3.55l2,8.66c.36,1.88.73,3.86,1.1,5.85h.12c.22-2,.48-3.95.73-5.85L324.48,30h4l-3.3,18.52h-5.25l-1.82-8.41c-.28-1.42-.54-2.93-.74-4.29h-.11c-.23,1.36-.46,2.87-.74,4.29l-1.76,8.41H309.6Z"/><path class="cls-1" d="M329.31,30h11.62v3.52h-7.41v3.72h6.3v3.49h-6.3V45h7.69v3.53h-11.9Z"/><path class="cls-1" d="M343.11,30h6.34c3.86,0,6.84,1.05,6.84,4.6a4,4,0,0,1-3.12,4v.12c2.64.48,4,1.87,4,4.34,0,3.78-3.18,5.46-7.21,5.46h-6.88Zm6.14,7.47c2,0,2.95-.88,2.95-2.27s-1-2-2.89-2h-2v4.23Zm.4,7.81c2.27,0,3.46-.85,3.46-2.53s-1.16-2.33-3.46-2.33h-2.33v4.86Z"/></g><g class="cls-2"><path class="cls-1" d="M252.12,68.77a7.34,7.34,0,0,0,4.54,1.94c1.73,0,2.59-.69,2.59-1.79s-1.05-1.54-2.67-2.22l-2.39-1a5.39,5.39,0,0,1-3.75-5.06c0-3.06,2.76-5.51,6.59-5.51a8.6,8.6,0,0,1,6,2.45l-2.11,2.64A6,6,0,0,0,257,58.72c-1.42,0-2.36.63-2.36,1.68s1.23,1.53,2.84,2.18l2.36,1c2.25.91,3.66,2.41,3.66,5,0,3.06-2.55,5.73-6.95,5.73a10.29,10.29,0,0,1-6.88-2.67Z"/><path class="cls-1" d="M264.93,55.46h11.61V59h-7.41V62.7h6.3v3.49h-6.3v4.26h7.7V74h-11.9Z"/><path class="cls-1" d="M288.36,74l-3.55-6.67h-2.27V74h-4.21V55.46H285c3.92,0,7.15,1.36,7.15,5.76a5.45,5.45,0,0,1-3.29,5.34L293,74Zm-5.82-10h2.13c2.18,0,3.37-.94,3.37-2.76s-1.19-2.44-3.37-2.44h-2.13Z"/><path class="cls-1" d="M291.6,55.46H296l2.24,8.63c.54,2,.91,3.89,1.48,5.93h.11c.57-2,.94-3.91,1.48-5.93l2.18-8.63h4.29L302.22,74h-5Z"/><path class="cls-1" d="M309.18,55.46h4.2V74h-4.2Z"/><path class="cls-1" d="M323.94,55.11a7.76,7.76,0,0,1,5.48,2.42l-2.3,2.58A4.35,4.35,0,0,0,324,58.72c-2.58,0-4.6,2.25-4.6,6s1.79,6,4.49,6a4.56,4.56,0,0,0,3.52-1.65l2.3,2.53a7.55,7.55,0,0,1-5.88,2.72c-4.8,0-8.72-3.26-8.72-9.48S319.17,55.11,323.94,55.11Z"/><path class="cls-1" d="M330.76,55.46h11.62V59H335V62.7h6.31v3.49H335v4.26h7.7V74h-11.9Z"/><path class="cls-1" d="M345.78,68.77a7.37,7.37,0,0,0,4.55,1.94c1.73,0,2.58-.69,2.58-1.79s-1.05-1.54-2.67-2.22l-2.38-1a5.39,5.39,0,0,1-3.75-5.06c0-3.06,2.75-5.51,6.59-5.51a8.57,8.57,0,0,1,6,2.45l-2.1,2.64a6.07,6.07,0,0,0-3.86-1.48c-1.42,0-2.36.63-2.36,1.68s1.22,1.53,2.84,2.18l2.36,1c2.24.91,3.66,2.41,3.66,5,0,3.06-2.56,5.73-7,5.73a10.26,10.26,0,0,1-6.87-2.67Z"/></g><line class="cls-1" x1="239.97" y1="30.06" x2="239.97" y2="74"/><rect class="cls-1" x="239.47" y="30.06" width="1" height="43.94"/></g></g></svg>