<svg xmlns="http://www.w3.org/2000/svg" viewBox="0 0 569.36 94.79"><defs><style>.cls-1,.cls-2{fill:#111;}.cls-2{opacity:0.7;}</style></defs><g id="Layer_2" data-name="Layer 2"><g id="Layer_1-2" data-name="Layer 1"><path class="cls-1" d="M116.23,36.74l7.51-5.93c2.25,3.09,5.67,5.21,9,5.21,3,0,5-1.39,5-3.76,0-1.92-1.91-2.77-4.88-4.62l-3.69-2.31c-4-2.5-6.33-5.6-6.33-10.94,0-7.71,7.05-13.85,15.76-13.85A17.63,17.63,0,0,1,151.89,7.2l-6.59,6.2c-2.17-2.18-4.35-3.76-7.12-3.76-3,0-4.55,1.65-4.55,3.7,0,1.77,1.85,2.57,5.28,4.74l4,2.44c4.16,2.51,5.8,5.21,5.8,10.22,0,7.85-6.46,14.24-16.74,14.24C126.45,45,120.71,42.74,116.23,36.74Z"/><path class="cls-1" d="M153.8,29.55a50.46,50.46,0,0,1,.92-7.25l4.22-21h10.55l-4.61,23.08a31.73,31.73,0,0,0-.53,4.88c0,4.35,1.32,6.59,5.67,6.59,3.82,0,5.93-2.9,7.38-10.28l4.88-24.27h10.29l-4.88,24C185.05,38.78,179.51,45,169.76,45,159.08,45,153.8,40.1,153.8,29.55Z"/><path class="cls-1" d="M199.68,1.33h14.11C222.3,1.33,229,4.5,229,13.07c0,12.53-9.42,17.14-20.17,17.14h-4.35l-2.77,14H191.11ZM210,21.91c5.41,0,8.51-2.51,8.51-7.26,0-3.43-2.31-5-6.2-5h-3.82l-2.38,12.27Z"/><path class="cls-1" d="M236.33,1.33h26.11l-1.71,8.84H245l-1.44,7.52H256.9l-1.71,8.83H241.87L240,35.36h16.22l-1.71,8.83H227.76Z"/><path class="cls-1" d="M269,1.33h14.11c8.57,0,15.16,3,15.16,11.35,0,8-4.35,12.79-10.35,15.09l6.4,16.42H283.27l-4.94-14.77h-4.42L271,44.19H260.46Zm10.42,19.78c5.67,0,8.44-2.76,8.44-6.85,0-3.17-2.25-4.62-6.2-4.62h-3.83l-2.24,11.47Z"/><path class="cls-1" d="M313.86,1.33h12.65l4.09,42.86H319.53l-.27-9.76h-11.8L303,44.19h-11.6Zm-2.77,25.19H319l-.13-5c-.14-4.09-.27-7.91-.27-12.26h-.26c-1.72,4.22-3.16,8.17-5,12.26Z"/><path class="cls-1" d="M334.68,1.33H345.5l-1.72,19.39c-.46,4.48-.92,9.16-1.58,13.71h.26c1.72-4.55,3.76-9.29,5.41-13.71L356,1.33h8.77V20.72c-.13,4.35-.4,9.1-.66,13.71h.26c1.45-4.61,3.17-9.29,4.49-13.71L375.3,1.33h10L369.1,44.19H355.78l.53-18.33c0-2.57.39-6.72.72-9.95h-.26c-1.12,3.16-2.5,6.66-3.76,10l-7.12,18.33H332.84Z"/><path class="cls-1" d="M389.13,1.33h26.11l-1.71,8.84H397.84l-1.45,7.52H409.7L408,26.52H394.67l-1.84,8.84h16.22l-1.72,8.83H380.56Z"/><path class="cls-1" d="M411.68,36.74l7.51-5.93c2.25,3.09,5.67,5.21,9,5.21,3,0,5-1.39,5-3.76,0-1.92-1.91-2.77-4.88-4.62l-3.69-2.31c-4-2.5-6.33-5.6-6.33-10.94C418.27,6.68,425.32.54,434,.54A17.63,17.63,0,0,1,447.34,7.2l-6.59,6.2c-2.17-2.18-4.35-3.76-7.12-3.76-3,0-4.55,1.65-4.55,3.7,0,1.77,1.85,2.57,5.28,4.74l3.95,2.44c4.16,2.51,5.8,5.21,5.8,10.22,0,7.85-6.46,14.24-16.74,14.24C421.9,45,416.16,42.74,411.68,36.74Z"/><path class="cls-1" d="M448.07,26.78c0-15.95,10.81-26.24,22.15-26.24,9.89,0,16.61,6.6,16.61,18.2C486.83,34.7,476,45,464.68,45,454.79,45,448.07,38.39,448.07,26.78ZM476,19.4c0-6.2-2.38-9.76-6.33-9.76-4.88,0-10.81,6.6-10.81,16.49,0,6.19,2.37,9.75,6.33,9.75C470.09,35.88,476,29.29,476,19.4Z"/><path class="cls-1" d="M496.19,1.33h10.94L509.9,19.8l1,7.25h.26l3.76-7.25,10-18.47h11l-8.57,42.86h-9.89l3-14.24a149,149,0,0,1,4.22-15h-.2l-5.34,10L510,40.5h-3.95l-2.77-15.56-1.32-10h-.2a144.75,144.75,0,0,1-1.65,15l-2.9,14.24h-9.62Z"/><path class="cls-1" d="M543.26,1.33h26.1l-1.71,8.84H552l-1.45,7.52h13.31l-1.71,8.83H548.79L547,35.36h16.22l-1.72,8.83H534.68Z"/><path class="cls-2" d="M119.79,75.75c0-15.3,10.41-26.24,23.07-26.24a13.1,13.1,0,0,1,11.74,7L147.48,62c-1.58-2.38-3.17-3.43-5.15-3.43-6.19,0-11.73,7.25-11.73,16.48,0,6.2,2.37,9.76,8.18,9.76,2.24,0,4.61-1.32,6.59-3l4.35,6.73A19.81,19.81,0,0,1,136.53,94C126.51,94,119.79,87.35,119.79,75.75Z"/><path class="cls-2" d="M161.58,50.3h14.11c8.57,0,15.16,3,15.16,11.34,0,8-4.35,12.79-10.35,15.1l6.4,16.42H175.82l-4.94-14.77h-4.42l-2.9,14.77H153ZM172,70.08c5.67,0,8.44-2.77,8.44-6.86,0-3.16-2.24-4.61-6.2-4.61h-3.82l-2.25,11.47Z"/><path class="cls-2" d="M252.42,50.3H239.76L217.57,92.74l1.63-8.42H203l1.85-8.83h13.31l1.72-8.84H206.54L208,59.14h15.69l1.72-8.84H199.29l-8.57,42.86H229l4.42-9.76h11.8l.26,9.76h11.08ZM237,75.49l2.24-5c1.85-4.09,3.3-8.05,5-12.27h.26c0,4.35.13,8.18.26,12.27l.13,5Z"/><path class="cls-2" d="M268.24,59.14H257.43l1.71-8.84h32.18l-1.72,8.84H278.79l-6.73,34H261.51Z"/><path class="cls-2" d="M287.49,75.75c0-16,10.81-26.24,22.15-26.24,9.89,0,16.61,6.59,16.61,18.2,0,16-10.81,26.24-22.15,26.24C294.21,94,287.49,87.35,287.49,75.75Zm27.95-7.38c0-6.2-2.37-9.76-6.33-9.76-4.88,0-10.81,6.59-10.81,16.48,0,6.2,2.37,9.76,6.33,9.76C309.51,84.85,315.44,78.26,315.44,68.37Z"/><path class="cls-2" d="M335.61,50.3h14.11c8.57,0,15.16,3,15.16,11.34,0,8-4.35,12.79-10.35,15.1l6.4,16.42H349.85l-4.94-14.77h-4.42l-2.9,14.77H327ZM346,70.08c5.67,0,8.44-2.77,8.44-6.86,0-3.16-2.25-4.61-6.2-4.61h-3.83L342.2,70.08Z"/><path class="cls-2" d="M362.24,85.71l7.52-5.94c2.24,3.1,5.67,5.21,9,5.21,3,0,5-1.38,5-3.76,0-1.91-1.91-2.77-4.88-4.61l-3.69-2.31c-4-2.51-6.33-5.6-6.33-10.95,0-7.71,7.06-13.84,15.76-13.84a17.66,17.66,0,0,1,13.32,6.66l-6.6,6.2c-2.17-2.18-4.35-3.76-7.12-3.76-3,0-4.55,1.65-4.55,3.69,0,1.78,1.85,2.57,5.28,4.75l4,2.44c4.15,2.5,5.8,5.21,5.8,10.22,0,7.84-6.46,14.24-16.75,14.24C372.46,94,366.72,91.7,362.24,85.71Z"/><path class="cls-1" d="M47.4,0A47.4,47.4,0,1,0,94.79,47.4,47.45,47.45,0,0,0,47.4,0Zm0,85.41a38,38,0,0,1-32.9-19H49.57a2.23,2.23,0,0,0,2.23-2.23V56.83L65,60.59v.56a2.11,2.11,0,1,0,4.22,0V33.64a2.11,2.11,0,0,0-4.22,0v.56L51.8,38V30.62a2.23,2.23,0,0,0-2.23-2.23H14.5a38,38,0,1,1,32.9,57ZM23.5,54.91V40a1.64,1.64,0,0,1,2.36-1.52L39.3,46.4a1.16,1.16,0,0,1,.12,2L25.89,56.26A1.55,1.55,0,0,1,23.5,54.91Z"/></g></g></svg>