<svg xmlns="http://www.w3.org/2000/svg" viewBox="0 0 348.94 95.92"><defs><style>.cls-1,.cls-2{fill:#111;}.cls-2{opacity:0.7;}</style></defs><g id="Layer_2" data-name="Layer 2"><g id="Layer_1-2" data-name="Layer 1"><path class="cls-1" d="M45.61,95.92,33,86.76H17.42L12.61,71.94,0,62.78,4.82,48,0,33.14,12.61,24,17.42,9.16H33L45.61,0,58.22,9.16H73.8L78.62,24l12.61,9.16L86.41,48l4.82,14.82L78.62,71.94,73.8,86.76H58.22ZM24.14,77.51H36l9.6,7,9.6-7H67.08l3.67-11.29,9.6-7L76.68,48l3.67-11.29-9.6-7L67.08,18.41H55.21l-9.6-7-9.6,7H24.14L20.48,29.7l-9.61,7L14.54,48,10.87,59.25l9.61,7Z"/><path class="cls-1" d="M38.31,67,21.92,50.62a.63.63,0,0,1,0-.88l5.67-5.67a.62.62,0,0,1,.87,0l9.85,9.85a.62.62,0,0,0,.87,0L60.91,32.19a.62.62,0,0,1,.87,0l5.67,5.67a.62.62,0,0,1,0,.87L39.18,67A.62.62,0,0,1,38.31,67Z"/><path class="cls-1" d="M115.66,56c2.21,3,5.58,5.13,8.82,5.13,3,0,4.93-1.37,4.93-3.7,0-1.88-1.88-2.72-4.8-4.54L121,50.58c-3.89-2.46-6.22-5.51-6.22-10.76,0-7.59,6.94-13.62,15.49-13.62a17.37,17.37,0,0,1,13.1,6.55l-6.48,6.1c-2.14-2.14-4.28-3.7-7-3.7-3,0-4.47,1.62-4.47,3.63,0,1.75,1.82,2.53,5.19,4.67l3.89,2.4c4.08,2.46,5.7,5.12,5.7,10,0,7.71-6.35,14-16.47,14-5.38,0-11-2.2-15.43-8.1Z"/><path class="cls-1" d="M164.28,59.53h-11.6l-4.35,9.6H136.92L159,27h12.45l4,42.15H164.54ZM164,51.75l-.13-4.93c-.13-4-.25-7.78-.25-12.06h-.26c-1.69,4.15-3.12,8-4.93,12.06l-2.21,4.93Z"/><path class="cls-1" d="M185.16,27h25.68l-1.69,8.69H193.72L192,44.36h13.1l-1.68,8.69h-13.1l-3.24,16.08H176.73Z"/><path class="cls-1" d="M216,27H241.7L240,35.67H224.58l-1.42,7.39h13.09l-1.68,8.69h-13.1l-1.81,8.69H235.6l-1.68,8.69H207.6Z"/><path class="cls-2" d="M248.18,27h25.68l-1.69,8.69H256.74l-1.68,8.69h13.09l-1.68,8.69h-13.1l-3.24,16.08H239.76Z"/><path class="cls-2" d="M289,59.53h-11.6l-4.35,9.6H261.67L283.72,27h12.44l4,42.15H289.29Zm-.26-7.78-.13-4.93c-.13-4-.26-7.78-.26-12.06h-.26c-1.68,4.15-3.11,8-4.92,12.06L281,51.75Z"/><path class="cls-2" d="M309.91,27h10.76l2.73,18.16,1,7.13h.26l3.69-7.13L338.18,27h10.76l-8.43,42.15h-9.72l3-14a146.72,146.72,0,0,1,4.15-14.78h-.19l-5.26,9.85-8.94,15.3h-3.89l-2.73-15.3-1.29-9.85h-.2a142.66,142.66,0,0,1-1.62,14.78l-2.85,14h-9.47Z"/></g></g></svg>