<svg xmlns="http://www.w3.org/2000/svg" viewBox="0 0 604.65 100.66"><defs><style>.cls-1,.cls-3{fill:#111;}.cls-2{opacity:0.7;}.cls-3{fill-rule:evenodd;}</style></defs><g id="Layer_2" data-name="Layer 2"><g id="Layer_1-2" data-name="Layer 1"><path class="cls-1" d="M123.14,39.44l8-6.31c2.38,3.29,6,5.54,9.53,5.54,3.22,0,5.32-1.47,5.32-4,0-2-2-2.94-5.18-4.9l-3.92-2.45c-4.21-2.67-6.73-6-6.73-11.63,0-8.2,7.5-14.71,16.74-14.71a18.76,18.76,0,0,1,14.16,7.07l-7,6.59c-2.31-2.31-4.62-4-7.57-4-3.22,0-4.83,1.75-4.83,3.93,0,1.89,2,2.73,5.6,5l4.21,2.59c4.41,2.67,6.16,5.54,6.16,10.86,0,8.34-6.86,15.13-17.79,15.13C134,48.19,127.91,45.81,123.14,39.44Z"/><path class="cls-1" d="M163.07,31.8a52.69,52.69,0,0,1,1-7.7l4.49-22.28h11.21l-4.91,24.52a34.39,34.39,0,0,0-.56,5.18c0,4.63,1.4,7,6,7,4.06,0,6.3-3.09,7.84-10.93l5.19-25.78h10.93l-5.19,25.5c-2.8,14.29-8.69,20.87-19.06,20.87C168.68,48.19,163.07,43,163.07,31.8Z"/><path class="cls-1" d="M211.82,1.82h15c9,0,16.11,3.36,16.11,12.47,0,13.31-10,18.21-21.44,18.21h-4.62l-2.94,14.85H202.72Zm11,21.85c5.75,0,9-2.66,9-7.7,0-3.64-2.45-5.33-6.58-5.33h-4.07l-2.52,13Z"/><path class="cls-1" d="M250.77,1.82h27.74l-1.82,9.38H260l-1.54,8h14.15l-1.82,9.39H256.65l-2,9.39h17.24l-1.82,9.38H241.66Z"/><path class="cls-1" d="M285.51,1.82h15c9.1,0,16.11,3.22,16.11,12,0,8.47-4.62,13.59-11,16l6.8,17.44H300.65l-5.26-15.69H290.7l-3.09,15.69H276.4Zm11.07,21c6,0,9-2.94,9-7.28,0-3.36-2.38-4.91-6.59-4.91H294.9l-2.38,12.19Z"/><path class="cls-1" d="M333.15,1.82H346.6l4.34,45.53H339.17L338.89,37H326.35l-4.69,10.36H309.33ZM330.2,28.58h8.41l-.14-5.33c-.14-4.34-.28-8.4-.28-13h-.28c-1.82,4.49-3.36,8.69-5.32,13Z"/><path class="cls-1" d="M355.28,1.82h11.49L365,22.41c-.49,4.77-1,9.74-1.69,14.58h.29c1.82-4.84,4-9.88,5.74-14.58l8.62-20.59h9.31V22.41c-.14,4.63-.42,9.67-.7,14.58h.28c1.55-4.91,3.37-9.88,4.77-14.58l6.86-20.59h10.65L391.85,47.35H377.7l.56-19.47c0-2.73.42-7.15.77-10.58h-.28c-1.19,3.36-2.66,7.08-4,10.58l-7.57,19.47H353.32Z"/><path class="cls-1" d="M413.14,1.82h27.74l-1.82,9.38H422.39l-1.55,8H435l-1.83,9.39H419l-2,9.39H434.3l-1.83,9.38H404Z"/><path class="cls-1" d="M437.09,39.44l8-6.31c2.38,3.29,6,5.54,9.53,5.54,3.22,0,5.32-1.47,5.32-4,0-2-2-2.94-5.18-4.9l-3.93-2.45c-4.2-2.67-6.72-6-6.72-11.63C444.1,7.49,451.59,1,460.84,1A18.73,18.73,0,0,1,475,8.05l-7,6.59c-2.32-2.31-4.63-4-7.57-4-3.22,0-4.83,1.75-4.83,3.93,0,1.89,2,2.73,5.6,5l4.21,2.59c4.41,2.67,6.16,5.54,6.16,10.86,0,8.34-6.87,15.13-17.79,15.13C448,48.19,441.86,45.81,437.09,39.44Z"/><path class="cls-1" d="M475.76,28.86C475.76,11.9,487.25,1,499.3,1,509.81,1,517,8,517,20.31c0,17-11.49,27.88-23.54,27.88C482.9,48.19,475.76,41.19,475.76,28.86ZM505.46,21c0-6.58-2.52-10.37-6.72-10.37-5.19,0-11.49,7-11.49,17.52,0,6.58,2.52,10.37,6.72,10.37C499.16,38.53,505.46,31.52,505.46,21Z"/><path class="cls-1" d="M526.89,1.82h11.63l3,19.61,1,7.71h.28l4-7.71L557.44,1.82h11.63L560,47.35H549.45l3.23-15.13a159,159,0,0,1,4.48-16H557L551.28,26.9l-9.67,16.53H537.4L534.46,26.9l-1.4-10.65h-.21a154.66,154.66,0,0,1-1.75,16L528,47.35H517.79Z"/><path class="cls-1" d="M576.91,1.82h27.74l-1.82,9.38H586.15l-1.54,8h14.15l-1.82,9.39H582.79l-2,9.39h17.24l-1.83,9.38H567.8Z"/><g class="cls-2"><path class="cls-1" d="M240.59,53.5,229.77,73.42l-4.05,7.82h-.28l-1.07-7.82-3-19.92H209.57l-9.24,46.23L195.92,53.5H182.26L160.92,94.3l4.13-21.45H148.27l-1.71,9.24h6.83l-1.71,7.68a7.57,7.57,0,0,1-4,1.14c-6.55,0-9.11-4-9.11-10.67,0-9.95,6-17.78,13.38-17.78,2.7,0,4.55,1.14,6.25,3.7l7.69-6c-2.71-4.84-7.26-7.54-13.38-7.54-14.36,0-25.6,11.8-25.6,28.31,0,12.51,7.25,19.63,18.78,19.63a25.44,25.44,0,0,0,14.16-4.29l-1.79,3.43H170.6l4.77-10.52h12.7l.31,10.52h22.33l3.13-15.36a156.75,156.75,0,0,0,1.78-16.22h.21L217.26,79l3,16.79h4.27L234.33,79l5.76-10.81h.21a164.05,164.05,0,0,0-4.55,16.22l-3.27,15.36h10.67l9.24-46.23ZM179.24,80.67l2.45-5.4c2-4.41,3.56-8.68,5.41-13.23h.28c0,4.69.15,8.82.29,13.23l.16,5.4Z"/><polygon class="cls-1" points="258.94 53.5 249.69 99.73 261.07 99.73 270.31 53.5 258.94 53.5"/><path class="cls-1" d="M301.47,53.5l-3,14.79c-1.14,5.55-1.42,12.52-1.85,17.5h-.28l-2.28-10.38-6.4-21.91H276.72l-9.25,46.23h10.81l3-14.93a151.46,151.46,0,0,0,2-17.36h.28l2.14,10.39,6.4,21.9H303l9.25-46.23Z"/><path class="cls-1" d="M331.34,82.09h6.83l-1.71,7.68a7.57,7.57,0,0,1-4,1.14c-6.55,0-9.11-4-9.11-10.67,0-9.95,6-17.78,13.37-17.78,2.71,0,4.56,1.14,6.26,3.7l7.69-6c-2.71-4.84-7.26-7.54-13.38-7.54-14.36,0-25.6,11.8-25.6,28.31,0,12.51,7.25,19.63,18.78,19.63a25.28,25.28,0,0,0,14.93-4.84l4.41-22.9H333.05Z"/></g><path class="cls-3" d="M64.37,30.51c5.79,0,11.57,2.87,12.57,9.55.43,1.86,3.54,19.5,3.54,20.43a6.31,6.31,0,0,1-1.93,4.56,6.64,6.64,0,0,1-4.67,1.88C70,66.93,67,63.75,67,63.75l-9-9.49H42.55l-8.81,9.49a10.21,10.21,0,0,1-6.9,3.18,6.58,6.58,0,0,1-6.67-6.44c0-1,3.15-18.57,3.55-20.43,1.18-6.82,6.77-9.55,12.56-9.55Zm-.63,18.28A2.47,2.47,0,0,0,68.48,48,2.42,2.42,0,0,0,67,45.69a2.5,2.5,0,0,0-2.71.47A2.35,2.35,0,0,0,63.74,48.79Zm7.47-3.42A2.52,2.52,0,0,1,68.66,43a2.5,2.5,0,1,1,2.55,2.4ZM58.46,42.9a2.35,2.35,0,1,0,.69-1.73A2.26,2.26,0,0,0,58.46,42.9ZM66,35.5a2.41,2.41,0,1,1-2.46,2.41A2.44,2.44,0,0,1,66,35.5ZM36.71,44.18H40a1.84,1.84,0,1,0,0-3.67H36.66V37.33a1.88,1.88,0,0,0-3.75,0v3.18H29.7a1.84,1.84,0,1,0,0,3.67H33v3.18a1.88,1.88,0,0,0,3.75,0Z"/><path class="cls-1" d="M50.33,100.66a50.33,50.33,0,1,1,50.33-50.33A50.39,50.39,0,0,1,50.33,100.66Zm0-90.69A40.36,40.36,0,1,0,90.69,50.33,40.4,40.4,0,0,0,50.33,10Z"/></g></g></svg>