<svg xmlns="http://www.w3.org/2000/svg" viewBox="0 0 428.99 97.54"><defs><style>.cls-1{fill:#111;}</style></defs><g id="Layer_2" data-name="Layer 2"><g id="Layer_1-2" data-name="Layer 1"><path class="cls-1" d="M46.06,97.54,33.33,88.11,17.48,88,12.73,72.84,0,63.4l5-15L.29,33.26l12.91-9.2,5-15,15.85.15L47,0,59.73,9.44l15.84.15,4.76,15.12,12.73,9.43-5,15,4.75,15.12L79.86,73.48l-5,15L59,88.35ZM24.41,78.61l12.07.12,9.69,7.19,9.84-7L68.08,79l3.83-11.44,9.84-7L78.13,49.07,82,37.63l-9.7-7.19L68.65,18.93l-12.07-.12-9.7-7.18-9.83,7L25,18.51,21.14,30l-9.83,7,3.62,11.51L11.09,59.91l9.7,7.19Z"/><path class="cls-1" d="M38.92,68.06,22.41,51.24a.62.62,0,0,1,0-.88l5.82-5.72a.64.64,0,0,1,.89,0L39,54.76a.63.63,0,0,0,.89,0L62.24,32.88a.63.63,0,0,1,.89,0l5.71,5.82a.63.63,0,0,1,0,.89l-29,28.47A.61.61,0,0,1,38.92,68.06Z"/><path class="cls-1" d="M123.65,36.59H112.74l1.73-8.91h32.44l-1.73,8.91h-10.9l-6.78,34.3H116.87Z"/><path class="cls-1" d="M150.19,27.68h26.32l-1.72,8.91H159l-1.47,7.58h13.43l-1.73,8.91H155.77L153.91,62h16.36l-1.73,8.91h-27Z"/><path class="cls-1" d="M180.06,27.68h26.33l-1.73,8.91H188.84l-1.46,7.58H200.8l-1.73,8.91H185.65L183.79,62h16.35l-1.73,8.91h-27Z"/><path class="cls-1" d="M210.19,27.68h10.23l6,20.48,2.12,9.7h.27c.4-4.65.66-11.16,1.73-16.35l2.79-13.83h10.1l-8.64,43.21H224.55l-6-20.47-2-9.71h-.27a142,142,0,0,1-1.86,16.22l-2.79,14h-10.1Z"/><path class="cls-1" d="M259.37,27.68h12.77l4.12,43.21H265.09l-.27-9.84H252.93l-4.46,9.84h-11.7Zm-2.79,25.4h8l-.14-5c-.13-4.13-.26-8-.26-12.37h-.27c-1.72,4.26-3.19,8.24-5.05,12.37Z"/><path class="cls-1" d="M281,27.68h10.9l-1.73,19.55c-.46,4.52-.93,9.24-1.59,13.82h.26c1.73-4.58,3.79-9.37,5.46-13.82l8.17-19.55h8.84V47.23c-.13,4.38-.4,9.17-.66,13.82H311c1.47-4.65,3.19-9.37,4.52-13.82L322,27.68h10.1L315.74,70.89H302.31l.53-18.48c0-2.59.4-6.78.73-10h-.26c-1.13,3.19-2.53,6.71-3.79,10l-7.18,18.48H279.18Z"/><path class="cls-1" d="M342.46,27.68h12.76l4.12,43.21H348.18l-.27-9.84H336l-4.45,9.84h-11.7Zm-2.79,25.4h8l-.13-5c-.13-4.13-.27-8-.27-12.37H347c-1.73,4.26-3.19,8.24-5.05,12.37Z"/><path class="cls-1" d="M366.55,27.68h14.22c8.65,0,15.29,3.06,15.29,11.44,0,8-4.38,12.89-10.43,15.22l6.45,16.55H380.91l-5-14.89h-4.45l-2.93,14.89H357.91Zm10.5,20c5.72,0,8.51-2.79,8.51-6.92,0-3.19-2.26-4.65-6.25-4.65h-3.85L373.2,47.63Z"/><path class="cls-1" d="M402.67,27.68H429l-1.73,8.91H411.44L410,44.17H423.4l-1.72,8.91H408.25L406.39,62h16.35L421,70.89H394Z"/></g></g></svg>