<?xml version="1.0" encoding="UTF-8" standalone="no"?>
<!-- Created with Inkscape (http://www.inkscape.org/) -->

<svg
   width="2560"
   height="1440"
   viewBox="0 0 677.33332 381.00002"
   version="1.1"
   id="svg8"
   inkscape:export-filename="C:\Users\ian.roberts\OneDrive - PTR Associates Ltd\Documents\SuperAwesome\Images\simpleslidebg.png"
   inkscape:export-xdpi="96"
   inkscape:export-ydpi="96"
   inkscape:version="1.3.2 (091e20e, 2023-11-25, custom)"
   sodipodi:docname="bg_bluetitle.svg"
   xml:space="preserve"
   xmlns:inkscape="http://www.inkscape.org/namespaces/inkscape"
   xmlns:sodipodi="http://sodipodi.sourceforge.net/DTD/sodipodi-0.dtd"
   xmlns="http://www.w3.org/2000/svg"
   xmlns:svg="http://www.w3.org/2000/svg"
   xmlns:rdf="http://www.w3.org/1999/02/22-rdf-syntax-ns#"
   xmlns:cc="http://creativecommons.org/ns#"
   xmlns:dc="http://purl.org/dc/elements/1.1/"><defs
     id="defs2"><style
       id="style1962">.cls-1{fill:#ff3b11;}</style></defs><sodipodi:namedview
     id="base"
     pagecolor="#ffffff"
     bordercolor="#666666"
     borderopacity="1.0"
     inkscape:pageopacity="0.0"
     inkscape:pageshadow="2"
     inkscape:zoom="0.25"
     inkscape:cx="1360"
     inkscape:cy="712"
     inkscape:document-units="px"
     inkscape:current-layer="layer1"
     showgrid="false"
     units="px"
     inkscape:window-width="1440"
     inkscape:window-height="830"
     inkscape:window-x="-6"
     inkscape:window-y="-6"
     inkscape:window-maximized="1"
     inkscape:showpageshadow="2"
     inkscape:pagecheckerboard="0"
     inkscape:deskcolor="#d1d1d1" /><metadata
     id="metadata5"><rdf:RDF><cc:Work
         rdf:about=""><dc:format>image/svg+xml</dc:format><dc:type
           rdf:resource="http://purl.org/dc/dcmitype/StillImage" /></cc:Work></rdf:RDF></metadata><g
     inkscape:label="Layer 1"
     inkscape:groupmode="layer"
     id="layer1"
     transform="translate(0,-106.49998)"><rect
       style="opacity:1;fill:#114bff;fill-opacity:1;stroke-width:0"
       id="rect1"
       width="363.86951"
       height="409.35318"
       x="375.07764"
       y="122.98262"
       transform="rotate(-3)" /><g
       id="Layer_1-2"
       data-name="Layer 1"
       transform="matrix(0.06112948,0,0,0.0611294,584.72918,125.02081)"
       style="fill:#ffffff"><path
         class="cls-1"
         d="m 265.23,171.1 v 0.09 c -3.62,16 -9.09,40.07 -10.19,56 -2.91,42.19 4.51,72.89 22.68,93.83 a 79,79 0 0 0 6.73,6.84 l 159.17,-7.56 c 2.43,-2.36 4.81,-4.81 7.12,-7.43 22.28,-25.24 39.38,-63.17 52.29,-116 L 550.94,6 h -87.12 l -47.3,189.87 c -14.28,58.33 -28.74,70.27 -46.07,70.27 -19.14,0 -29.07,-6.52 -26.7,-40.92 0.72,-10.46 5.89,-35.37 5.89,-35.37 L 395.26,6 h -88.88 l -41.13,165 z"
         id="path1966"
         style="fill:#ffffff" /><path
         class="cls-1"
         d="m 582.37,313.68 17.94,-72.82 h 22 c 41.09,0 76.67,-10.77 102.91,-31.15 a 123.49,123.49 0 0 0 26.65,-28.47 l -31.19,125.87 200.43,-9.53 8.61,-35.45 H 820.45 L 833,213.05 h 100.87 l 20.39,-84 H 853.49 L 863,89.93 H 973.79 L 994.18,6 H 795.4 L 776.45,82.32 C 774.25,59.1 765,40.78 748.79,27.73 730.84,13.28 705.12,6 672.35,6 H 569.88 L 492.47,318 Z M 638.59,86 h 18.46 c 29.65,0 31.94,16.55 31.08,29 -2.1,30.45 -19.53,45.88 -51.81,45.88 h -15.87 z"
         id="path1968"
         style="fill:#ffffff" /><path
         class="cls-1"
         d="m 1031,292.36 14.07,-57.46 h 16 l 12.81,55.42 89.56,-4.26 -19,-67.72 c 45.25,-21.9 72.09,-63.59 75.86,-118.27 C 1224.53,39.38 1187.41,6 1115.83,6 h -102.47 l -72.12,290.62 z m 51,-206.4 h 18.47 c 29.32,0 32.12,13.91 31.28,26 -1.93,28.07 -19.62,42.91 -51.16,42.91 h -15.41 z"
         id="path1970"
         style="fill:#ffffff" /><path
         class="cls-1"
         d="m 242,236.1 c 2.74,-39.75 -7.69,-63.36 -37.19,-84.18 l -25.3,-18.32 c -3.51,-2.62 -6.85,-5 -9.91,-7.23 -15.14,-10.92 -20.36,-15 -19.92,-21.33 C 150.51,92.91 159,86.68 173,86 c 23,-1.18 45.6,32.43 45.6,32.43 l 60.1,-58.9 C 278.7,59.53 246,0 181.55,0 A 123.58,123.58 0 0 0 98,32.83 C 74.79,54.11 60.84,82.58 58.75,113 56,152.22 68.44,179.84 99,202.52 l 23.74,17.4 c 2.64,1.93 5.15,3.71 7.51,5.39 15.35,10.89 20.26,15 19.77,22.21 -1.18,17 -17.06,19.58 -26.43,19.58 -34.93,0 -55.64,-43.73 -55.64,-43.73 L 0,279.79 c 0,0 17.23,38 57,58.86 l 126.89,-6 C 217.08,312.36 239.16,277.78 242,236.1 Z"
         id="path1972"
         style="fill:#ffffff" /><polygon
         class="cls-1"
         points="433.81,334.09 388.8,515.5 510.55,515.5 522.28,467.18 451.97,467.18 460.53,434.06 523.02,433.99 534.75,385.67 472.32,385.67 479.39,356.43 549.81,356.43 556.63,328.25 "
         id="polygon1974"
         style="fill:#ffffff" /><path
         class="cls-1"
         d="m 841.75,314.7 -101,4.8 c -27.33,21.58 -48.84,59.1 -52.28,109 -3.87,56.06 22.41,90.89 68.57,90.89 48.6,0 102.21,-48.57 107.81,-129.84 2.34,-33.55 -6.1,-59.41 -23.1,-74.85 z m -29.53,78 c -3.29,47.73 -31,77 -49.44,77 -15.46,0 -23.54,-16.63 -21.62,-44.48 3.29,-47.73 31,-77 49.44,-77 15.46,0 23.54,16.63 21.62,44.48 z"
         id="path1976"
         style="fill:#ffffff" /><polygon
         class="cls-1"
         points="898.37,312.01 847.88,515.5 895.26,515.5 917.82,415.34 927.52,515.5 948.72,515.5 1005.72,416.49 977.1,515.5 1025.67,515.5 1078.28,303.46 1024.04,306.04 960.42,421.71 953.39,309.4 "
         id="polygon1978"
         style="fill:#ffffff" /><polygon
         class="cls-1"
         points="1109.02,465.92 1118.56,427.72 1174.03,427.72 1182.38,427.72 1194.11,378.14 1130.32,378.14 1137.78,346.48 1208.66,346.48 1220.44,296.7 1097.29,302.56 1044.03,515.5 1168.13,515.52 1179.33,465.92 "
         id="polygon1980"
         style="fill:#ffffff" /><path
         class="cls-1"
         d="m 655.27,395.83 -22.69,-16.45 c -10.16,-7.32 -14.27,-10.51 -13.89,-16.05 0.65,-9.32 7.54,-15.11 18,-15.11 16.49,0 29.48,19.51 29.48,19.51 l 34.62,-33.88 a 74.12,74.12 0 0 0 -9.25,-12 L 582.67,327 a 73.17,73.17 0 0 0 -16.77,41.41 c -1.69,24.55 5.73,41.08 24.81,55.26 0,0 18.55,13.55 20,14.62 9.89,7 14.24,10.38 13.8,16.64 -0.66,9.66 -8.15,15.43 -20,15.43 -23.08,0 -36.48,-26.66 -36.48,-26.66 L 529,476.18 c 0,0 20.06,43.16 68.74,43.16 43.7,0 77.49,-30.17 80.36,-71.73 1.69,-24.8 -4.49,-38.83 -22.83,-51.78 z"
         id="path1982"
         style="fill:#ffffff" /><path
         class="cls-1"
         d="m 374.26,336.92 c -13.94,34.36 -33.39,82.4 -34.32,84.91 1.19,-10.06 3.67,-52.16 5.42,-83.53 l -58.85,2.79 -37.23,79.58 9.77,-78.27 -52.14,2.48 -18.35,170.62 H 250 l 50.31,-121 -12.23,121 h 62.6 l 73.83,-181 z"
         id="path1984"
         style="fill:#ffffff" /><path
         class="cls-1"
         d="M 88.92,350.48 0.21,515.49 H 55 l 11.44,-23.31 h 58.06 l -1.06,23.31 h 54 l -2.79,-169.08 z m 38,88.87 H 92.39 l 38.28,-83.27 z"
         id="path1986"
         style="fill:#ffffff" /></g><rect
       style="fill:#e7edff;fill-opacity:1;stroke-width:0"
       id="rect1-4"
       width="392.04349"
       height="230.13277"
       x="339.21933"
       y="215.26733"
       transform="matrix(0.99882626,-0.04843662,0,1,0,0)" /></g></svg>
