<?xml version="1.0" encoding="UTF-8" standalone="no"?>
<!-- Created with Inkscape (http://www.inkscape.org/) -->

<svg
   width="2560"
   height="1440"
   viewBox="0 0 677.33332 381.00002"
   version="1.1"
   id="svg8"
   inkscape:export-filename="C:\Users\ian.roberts\OneDrive - PTR Associates Ltd\Documents\SuperAwesome\Images\simpleslidebg.png"
   inkscape:export-xdpi="96"
   inkscape:export-ydpi="96"
   inkscape:version="1.3.2 (091e20e, 2023-11-25, custom)"
   sodipodi:docname="bg_simple_shortlogo.svg"
   xml:space="preserve"
   xmlns:inkscape="http://www.inkscape.org/namespaces/inkscape"
   xmlns:sodipodi="http://sodipodi.sourceforge.net/DTD/sodipodi-0.dtd"
   xmlns="http://www.w3.org/2000/svg"
   xmlns:svg="http://www.w3.org/2000/svg"
   xmlns:rdf="http://www.w3.org/1999/02/22-rdf-syntax-ns#"
   xmlns:cc="http://creativecommons.org/ns#"
   xmlns:dc="http://purl.org/dc/elements/1.1/"><defs
     id="defs2"><style
       id="style1962">.cls-1{fill:#ff3b11;}</style><style
       id="style1">.cls-1{fill:#ff3b11;}</style></defs><sodipodi:namedview
     id="base"
     pagecolor="#ffffff"
     bordercolor="#666666"
     borderopacity="1.0"
     inkscape:pageopacity="0.0"
     inkscape:pageshadow="2"
     inkscape:zoom="0.25"
     inkscape:cx="1360"
     inkscape:cy="712"
     inkscape:document-units="px"
     inkscape:current-layer="layer1"
     showgrid="false"
     units="px"
     inkscape:window-width="1440"
     inkscape:window-height="830"
     inkscape:window-x="-6"
     inkscape:window-y="-6"
     inkscape:window-maximized="1"
     inkscape:showpageshadow="2"
     inkscape:pagecheckerboard="0"
     inkscape:deskcolor="#d1d1d1" /><metadata
     id="metadata5"><rdf:RDF><cc:Work
         rdf:about=""><dc:format>image/svg+xml</dc:format><dc:type
           rdf:resource="http://purl.org/dc/dcmitype/StillImage" /></cc:Work></rdf:RDF></metadata><g
     inkscape:label="Layer 1"
     inkscape:groupmode="layer"
     id="layer1"
     transform="translate(0,-106.49998)"><g
       id="Layer_1-2-6"
       data-name="Layer 1"
       transform="matrix(0.26458334,0,0,0.26458334,5.2916668,111.79165)"><path
         class="cls-1"
         d="M 96.2,97 94.94,20.79 H 73.76 L 32.81,97 H 52.4 l 4.09,-8.34 H 77.25 L 76.88,97 Z M 65.77,69.75 79.46,40 78.11,69.75 Z"
         id="path1" /><path
         class="cls-1"
         d="m 48,35.56 -6,-4.29 c -0.82,-0.61 -1.6,-1.18 -2.31,-1.69 -3.55,-2.56 -4.77,-3.52 -4.67,-5 0.2,-2.83 2.19,-4.29 5.45,-4.46 5.38,-0.28 10.67,7.59 10.67,7.59 L 65.23,13.93 C 65.23,13.93 57.58,0 42.49,0 A 29,29 0 0 0 22.94,7.68 28.1,28.1 0 0 0 13.75,26.44 c -0.63,9.19 2.27,15.65 9.41,21 l 5.56,4.07 c 0.62,0.45 1.2,0.87 1.76,1.26 3.59,2.55 4.74,3.52 4.62,5.2 -0.27,4 -4,4.58 -6.18,4.58 -8.18,0 -13,-10.23 -13,-10.23 L 0,65.48 c 0,0 7.67,16.92 26.3,16.92 A 33.1,33.1 0 0 0 37.1,80.63 L 55.86,45.75 C 54.64,41.66 52.1,38.49 48,35.56 Z"
         id="path2" /></g></g></svg>
