<svg xmlns="http://www.w3.org/2000/svg" viewBox="0 0 378.12 153.95"><defs><style>.cls-1,.cls-2{fill:#111;}.cls-2{opacity:0.7;}</style></defs><g id="Layer_2" data-name="Layer 2"><g id="Layer_1-2" data-name="Layer 1"><path class="cls-1" d="M194.29,96.53a48.27,48.27,0,1,1,48.27-48.27A48.32,48.32,0,0,1,194.29,96.53Zm0-87A38.71,38.71,0,1,0,233,48.26,38.74,38.74,0,0,0,194.29,9.56Z"/><path class="cls-1" d="M215.62,42.31l-17.37-.07a.64.64,0,0,1-.62-.79l5.12-20.91a.64.64,0,0,0-1.1-.57L172.49,53.16a.63.63,0,0,0,.47,1.05l17.38.08a.64.64,0,0,1,.62.78L185.84,76a.63.63,0,0,0,1.09.57L216.1,43.37A.64.64,0,0,0,215.62,42.31Z"/><path class="cls-1" d="M23.1,109,0,153.14H12l4.55-10.06H28.67l.27,10.06H40.35L36.14,109Zm-2.85,26,2.3-5.16c1.91-4.21,3.4-8.29,5.17-12.64H28c0,4.49.14,8.43.27,12.64l.14,5.16Z"/><path class="cls-1" d="M99.8,144l1.9-9.1h13.72l1.77-9.1H103.47l1.49-7.75h16.17l1.77-9.1H87l-6.65,20c-1.36,4.55-3.13,9.38-4.62,14.13h-.27c.27-4.75.54-9.64.67-14.13V109h-9l-8.36,20c-1.7,4.55-3.8,9.45-5.57,14.13h-.27c.68-4.68,1.16-9.51,1.63-14.13l1.77-20H45.15l-1.91,44.16H56.69L64,134.25c1.29-3.39,2.72-7,3.87-10.26h.28c-.34,3.33-.75,7.61-.75,10.26l-.54,18.89H80.61L94.5,116.42l-7.34,36.72h27.58l1.77-9.11Z"/><path class="cls-1" d="M143.74,128.75l-4.07-2.51c-3.53-2.25-5.44-3.06-5.44-4.9,0-2.1,1.57-3.8,4.69-3.8,2.85,0,5.1,1.63,7.34,3.87l6.79-6.38a18.18,18.18,0,0,0-13.72-6.87c-9,0-16.24,6.32-16.24,14.27,0,5.5,2.45,8.7,6.52,11.28l3.81,2.38c3.05,1.9,5,2.78,5,4.75,0,2.45-2,3.87-5.16,3.87-3.4,0-6.93-2.17-9.24-5.36l-7.74,6.11c4.62,6.18,10.53,8.49,16.17,8.49,10.59,0,17.25-6.59,17.25-14.67C149.72,134.12,148,131.33,143.74,128.75Z"/><path class="cls-1" d="M174.87,108.16c-11.69,0-22.83,10.6-22.83,27,0,12,6.93,18.75,17.12,18.75,11.68,0,22.83-10.59,22.83-27C192,115,185.06,108.16,174.87,108.16Zm-5.17,36.42c-4.07,0-6.52-3.67-6.52-10.06,0-10.19,6.11-17,11.14-17,4.08,0,6.52,3.67,6.52,10C180.84,137.78,174.73,144.58,169.7,144.58Z"/><path class="cls-1" d="M229.1,109l-10.32,19-3.88,7.47h-.27l-1-7.47-2.85-19H199.48l-8.83,44.16h9.92l3-14.68a150.59,150.59,0,0,0,1.7-15.49h.2l1.36,10.33,2.85,16h4.08l9.37-16L228.63,123h.2a155.57,155.57,0,0,0-4.35,15.49l-3.12,14.68h10.19L240.38,109Z"/><polygon class="cls-1" points="269.42 118.08 271.18 108.98 244.28 108.98 235.45 153.14 263.03 153.14 264.8 144.03 248.09 144.03 249.99 134.93 263.71 134.93 265.48 125.83 251.75 125.83 253.25 118.08 269.42 118.08"/><path class="cls-2" d="M324.11,109H313.78l-8,40.16L301.92,109h-13l-23.1,44.16h12l4.56-10.06h12.16l.27,10.06h24.77c13.86,0,24.46-8.83,24.46-26.77C344,114.41,336.47,109,324.11,109Zm-38.09,26,2.31-5.16c1.9-4.21,3.4-8.29,5.16-12.64h.28c0,4.49.13,8.43.27,12.64l.13,5.16Zm33.2,9.51h-1.63l5.3-26.76h.95c5.16,0,9,2.44,9,9.37C332.8,139.82,326.55,144.44,319.22,144.44Z"/><path class="cls-2" d="M349.12,139.35c2.3,3.19,5.84,5.36,9.23,5.36,3.13,0,5.17-1.42,5.17-3.87,0-2-2-2.85-5-4.75l-3.8-2.38c-4.08-2.58-6.53-5.78-6.53-11.28,0-8,7.27-14.27,16.24-14.27A18.18,18.18,0,0,1,378.12,115l-6.79,6.38c-2.24-2.24-4.48-3.87-7.34-3.87-3.12,0-4.68,1.7-4.68,3.8,0,1.84,1.9,2.65,5.43,4.9l4.08,2.51c4.28,2.58,6,5.37,6,10.53,0,8.08-6.65,14.67-17.25,14.67-5.64,0-11.55-2.31-16.17-8.49Z"/></g></g></svg>