<svg xmlns="http://www.w3.org/2000/svg" viewBox="0 0 277.42 144.6"><defs><style>.cls-1{fill:#111;}</style></defs><g id="Layer_2" data-name="Layer 2"><g id="Layer_1-2" data-name="Layer 1"><path class="cls-1" d="M139.61,92.78l-12.2-8.86H112.34l-4.66-14.34L95.49,60.72l4.66-14.33L95.49,32.05l12.19-8.86,4.66-14.33h15.07L139.61,0,151.8,8.86h15.07l4.66,14.33,12.19,8.86-4.65,14.34,4.65,14.33-12.19,8.86-4.66,14.34H151.8ZM118.84,75h11.48l9.29,6.75L148.89,75h11.48l3.55-10.92,9.29-6.75-3.55-10.91,3.55-10.92-9.29-6.75-3.55-10.91H148.89l-9.28-6.75-9.29,6.75H118.84l-3.55,10.91L106,35.47l3.54,10.92L106,57.3l9.28,6.75Z"/><path class="cls-1" d="M132.54,64.8,116.69,49a.61.61,0,0,1,0-.85l5.49-5.48a.6.6,0,0,1,.84,0l9.52,9.52a.61.61,0,0,0,.85,0l21-21a.61.61,0,0,1,.85,0l5.48,5.49a.6.6,0,0,1,0,.84L133.39,64.8A.59.59,0,0,1,132.54,64.8Z"/><path class="cls-1" d="M8.61,101.56H19.2L16,117.85h.27l14.1-16.29H41.84L26.35,119.7l9.53,24.9h-11l-6.35-18.28L13,132.68,10.59,144.6H0Z"/><path class="cls-1" d="M47.26,101.56H57.85l-8.61,43H38.65Z"/><path class="cls-1" d="M62.17,101.56H72.24c12,0,19.33,5.3,19.33,17,0,17.48-10.33,26.09-23.84,26.09H53.57Zm5.3,34.56c7.15,0,13.24-4.5,13.24-17C80.71,112.42,77,110,72,110H71l-5.16,26.08Z"/><path class="cls-1" d="M113.66,134.8H101.81l-4.44,9.8H85.72l22.51-43h12.71l4.1,43H113.92Zm-.27-8-.13-5c-.13-4.1-.26-7.94-.26-12.31h-.27c-1.72,4.24-3.18,8.21-5,12.31l-2.25,5Z"/><path class="cls-1" d="M130,101.56h10.86L139.14,121c-.46,4.5-.93,9.2-1.59,13.77h.27c1.72-4.57,3.77-9.34,5.42-13.77l8.15-19.47h8.8V121c-.13,4.37-.4,9.13-.66,13.77h.26c1.46-4.64,3.18-9.34,4.51-13.77l6.48-19.47h10.07l-16.29,43H151.19l.53-18.41c0-2.58.4-6.75.73-10h-.27c-1.12,3.17-2.51,6.68-3.77,10l-7.15,18.41H128.15Z"/><path class="cls-1" d="M195.86,134.8H184l-4.44,9.8H167.92l22.51-43h12.71l4.1,43H196.12Zm-.27-8-.13-5c-.13-4.1-.27-7.94-.27-12.31h-.26c-1.72,4.24-3.18,8.21-5,12.31l-2.25,5Z"/><path class="cls-1" d="M229.06,101.56c8.6,0,15.22,3,15.22,11.39,0,8-4.37,12.84-10.39,15.16l6.42,16.49H229.19l-5-14.83h-4.44l-2.91,14.83H206.29l8.6-43Zm-7.55,19.87h3.84c5.69,0,8.47-2.79,8.47-6.89,0-3.18-2.25-4.63-6.22-4.63h-3.84Z"/><path class="cls-1" d="M251.21,101.56h26.21l-1.72,8.88H260L258.49,118h13.37l-1.72,8.87H256.77l-1.85,8.87H271.2l-1.72,8.88H242.6Z"/></g></g></svg>