<svg xmlns="http://www.w3.org/2000/svg" viewBox="0 0 116.25 161.63"><defs><style>.cls-1{fill:#111;}.cls-2{opacity:0.5;}</style></defs><g id="Layer_2" data-name="Layer 2"><g id="Layer_1-2" data-name="Layer 1"><path class="cls-1" d="M8.87,99.52H19.78L16.44,116.3h.27L31.24,99.52H43.12l-16,18.69L37,143.86H25.65L19.1,125l-5.73,6.55-2.46,12.28H0Z"/><path class="cls-1" d="M37.39,136.15,45.16,130c2.32,3.21,5.87,5.39,9.28,5.39,3.14,0,5.19-1.43,5.19-3.88,0-2-2-2.87-5.05-4.78l-3.82-2.39c-4.09-2.59-6.55-5.8-6.55-11.32,0-8,7.3-14.33,16.31-14.33a18.25,18.25,0,0,1,13.78,6.89L67.47,112c-2.25-2.25-4.5-3.89-7.36-3.89-3.14,0-4.71,1.71-4.71,3.82,0,1.85,1.91,2.67,5.46,4.92L65,119.37c4.3,2.59,6,5.39,6,10.58,0,8.11-6.68,14.73-17.33,14.73C48,144.68,42,142.36,37.39,136.15Z"/><path class="cls-1" d="M76.55,99.52H88l.82,20.74c.13,4.64.27,9.34.27,14h.27c2-4.71,3.89-9.34,5.87-14l9-20.74h12L93.47,143.86H80.23Z"/><g class="cls-2"><polygon class="cls-1" points="2.17 158.87 3.29 157.39 5.63 161.45 8.02 161.45 4.57 155.67 7.48 151.84 5.09 151.84 2.23 155.76 2.17 155.76 2.17 151.84 0 151.84 0 161.45 2.17 161.45 2.17 158.87"/><rect class="cls-1" x="8.47" y="151.84" width="2.17" height="9.61"/><path class="cls-1" d="M19.86,156.6c0-3.3-1.89-4.76-4.83-4.76H12.31v9.61h2.84C18,161.45,19.86,159.9,19.86,156.6Zm-5.37,3.1v-6.11h.41c1.63,0,2.73.71,2.73,3s-1.1,3.1-2.73,3.1Z"/><path class="cls-1" d="M24.08,159.75a3.8,3.8,0,0,1-2.36-1l-1.25,1.5A5.32,5.32,0,0,0,24,161.63c2.29,0,3.62-1.39,3.62-3A2.66,2.66,0,0,0,25.74,156l-1.22-.49c-.84-.34-1.47-.55-1.47-1.14s.48-.86,1.23-.86a3.08,3.08,0,0,1,2,.75l1.1-1.37a4.47,4.47,0,0,0-3.09-1.26c-2,0-3.43,1.27-3.43,2.86a2.8,2.8,0,0,0,1.94,2.62l1.25.54c.84.34,1.39.54,1.39,1.14S25,159.75,24.08,159.75Z"/><path class="cls-1" d="M37.78,156l-1.23-.49c-.83-.34-1.46-.55-1.46-1.14s.47-.86,1.22-.86a3.13,3.13,0,0,1,2,.75l1.09-1.37a4.44,4.44,0,0,0-3.09-1.26c-2,0-3.42,1.27-3.42,2.86a2.79,2.79,0,0,0,1.94,2.62l1.25.54c.84.34,1.38.54,1.38,1.14s-.44.93-1.35.93a3.86,3.86,0,0,1-2.36-1l-1.25,1.49a5.32,5.32,0,0,0,3.56,1.39c2.29,0,3.63-1.39,3.63-3A2.67,2.67,0,0,0,37.78,156Z"/><path class="cls-1" d="M44.65,151.66c-2.6,0-4.37,1.8-4.37,4.94s1.77,5,4.37,5,4.36-1.89,4.36-5S47.24,151.66,44.65,151.66Zm0,8.09c-1.32,0-2.14-1.22-2.14-3.15s.82-3.06,2.14-3.06,2.13,1.13,2.13,3.06S46,159.75,44.65,159.75Z"/><path class="cls-1" d="M54.33,159.75c-1.41,0-2.33-1.15-2.33-3.12s1-3.09,2.36-3.09a2.4,2.4,0,0,1,1.7.76l1.15-1.39a4,4,0,0,0-2.89-1.25c-2.43,0-4.54,1.85-4.54,5s2,4.93,4.47,4.93a4,4,0,0,0,3.11-1.41l-1.15-1.37A2.53,2.53,0,0,1,54.33,159.75Z"/><rect class="cls-1" x="58.23" y="151.84" width="2.17" height="9.61"/><path class="cls-1" d="M63.86,151.84l-3,9.61h2.23l.59-2.29h2.93l.59,2.29h2.3l-3-9.61Zm.24,5.63.23-.89c.27-1,.52-2.08.76-3.1h0c.26,1,.52,2.14.79,3.1l.23.89Z"/><polygon class="cls-1" points="71.99 151.84 69.82 151.84 69.82 161.45 75.78 161.45 75.78 159.63 71.99 159.63 71.99 151.84"/><path class="cls-1" d="M84.19,156.32c-.28,1.05-.48,2-.77,3.08h-.06c-.29-1.06-.49-2-.77-3.08l-1.16-4.48h-2.3l2.9,9.61h2.61l2.9-9.61H85.32Z"/><rect class="cls-1" x="87.86" y="151.84" width="2.17" height="9.61"/><path class="cls-1" d="M94.43,151.84H91.71v9.61h2.84c2.81,0,4.7-1.54,4.7-4.85S97.36,151.84,94.43,151.84Zm-.13,7.86h-.42v-6.11h.42c1.63,0,2.73.71,2.73,3S95.93,159.7,94.3,159.7Z"/><polygon class="cls-1" points="102.66 157.41 105.94 157.41 105.94 155.59 102.66 155.59 102.66 153.66 106.51 153.66 106.51 151.84 100.48 151.84 100.48 161.45 106.66 161.45 106.66 159.63 102.66 159.63 102.66 157.41"/><path class="cls-1" d="M111.89,151.66c-2.59,0-4.37,1.8-4.37,4.94s1.78,5,4.37,5,4.36-1.89,4.36-5S114.48,151.66,111.89,151.66Zm0,8.09c-1.31,0-2.14-1.22-2.14-3.15s.83-3.06,2.14-3.06,2.14,1.13,2.14,3.06S113.2,159.75,111.89,159.75Z"/></g><path class="cls-1" d="M74.79,25.86H45.39a4.76,4.76,0,0,0-4.76,4.76V52.13a4.76,4.76,0,0,0,4.76,4.76H75l3.75,4.34a.48.48,0,0,0,.84-.31V30.62A4.76,4.76,0,0,0,74.79,25.86Zm-7.39,16-12,7a1.38,1.38,0,0,1-2.12-1.2V34.37A1.46,1.46,0,0,1,55.39,33l11.92,7A1,1,0,0,1,67.4,41.83Z"/><path class="cls-1" d="M60.84,0a42.94,42.94,0,1,0,42.94,42.94A42.93,42.93,0,0,0,60.84,0Zm0,77a34,34,0,1,1,34-34A34.06,34.06,0,0,1,60.84,77Z"/></g></g></svg>