<svg xmlns="http://www.w3.org/2000/svg" viewBox="0 0 123.65 172.19"><defs><style>.cls-1{fill:#111;}.cls-2{opacity:0.5;}</style></defs><g id="Layer_2" data-name="Layer 2"><g id="Layer_1-2" data-name="Layer 1"><path class="cls-1" d="M8.87,108.46H19.78l-3.34,16.79h.27l14.54-16.79H43.12l-16,18.7L37,152.81H25.65L19.1,134l-5.73,6.55-2.45,12.28H0Z"/><path class="cls-1" d="M42.17,108.46H53.36l-1.78,20.06c-.47,4.64-.95,9.49-1.63,14.19h.27c1.77-4.7,3.89-9.62,5.59-14.19l8.4-20.06h9.07v20.06c-.14,4.51-.41,9.42-.68,14.19h.27c1.5-4.77,3.27-9.62,4.64-14.19l6.69-20.06H94.57L77.78,152.81H64l.55-19c0-2.66.41-7,.75-10.3H65c-1.16,3.28-2.59,6.89-3.88,10.3l-7.37,19H40.26Z"/><path class="cls-1" d="M94.52,139c2.32,3.21,5.87,5.39,9.28,5.39,3.14,0,5.18-1.43,5.18-3.89,0-2-2-2.86-5-4.77l-3.82-2.39c-4.09-2.59-6.55-5.8-6.55-11.33,0-8,7.3-14.32,16.31-14.32a18.25,18.25,0,0,1,13.78,6.89L116.83,121c-2.25-2.25-4.5-3.89-7.37-3.89-3.14,0-4.71,1.71-4.71,3.82,0,1.84,1.91,2.66,5.46,4.91l4.09,2.53c4.3,2.59,6,5.39,6,10.57,0,8.12-6.69,14.74-17.33,14.74-5.66,0-11.6-2.32-16.24-8.53Z"/><path class="cls-1" d="M61.83,97l-2.39-1.39c-42.4-24.76-39.66-69.9-39.21-75l.25-2.81L61.83,0l41.34,17.83.25,2.81c.45,5.07,3.19,50.21-39.21,75ZM29.51,24.25C29.23,34.39,31,66.45,61.83,86,92.68,66.45,94.42,34.39,94.14,24.25L61.83,10.31Z"/><path class="cls-1" d="M73.77,33.51a15.72,15.72,0,0,0-15.62-4.08,1.43,1.43,0,0,0-.62,2.39l8,8a1.42,1.42,0,0,1,0,2l-5.84,5.85a1.44,1.44,0,0,1-2,0l-8-7.95a1.43,1.43,0,0,0-2.39.62,16.06,16.06,0,0,0,4.08,15.62,16.35,16.35,0,0,0,16.16,3.83,1.38,1.38,0,0,1,1.39.35L81.71,72.64a1.43,1.43,0,0,0,2.06-.06l6.78-7.39a1.44,1.44,0,0,0,0-2L78,51.08a1.4,1.4,0,0,1-.37-1.45A15.68,15.68,0,0,0,73.77,33.51Z"/><g class="cls-2"><path class="cls-1" d="M0,161.45H2.39v4.32h0l3.16-4.32H8.2L5,165.65,8.8,172H6.18l-2.56-4.45-1.23,1.62V172H0Z"/><path class="cls-1" d="M9,161.45h2.39V172H9Z"/><path class="cls-1" d="M12.83,161.45h3c3.23,0,5.3,1.6,5.3,5.22S19,172,16,172H12.83Zm2.85,8.62c1.78,0,3-.87,3-3.4s-1.21-3.3-3-3.3h-.45v6.7Z"/><path class="cls-1" d="M22.81,169a4.25,4.25,0,0,0,2.59,1.09c1,0,1.47-.38,1.47-1s-.59-.88-1.52-1.27L24,167.27a3.06,3.06,0,0,1-2.14-2.88c0-1.74,1.57-3.13,3.75-3.13a4.87,4.87,0,0,1,3.4,1.39l-1.2,1.5a3.47,3.47,0,0,0-2.2-.84c-.81,0-1.34.36-1.34.95s.7.88,1.62,1.25l1.34.55a2.91,2.91,0,0,1,2.09,2.86c0,1.75-1.46,3.27-4,3.27a5.85,5.85,0,0,1-3.91-1.52Z"/><path class="cls-1" d="M31.49,161.45h2.44l.73,4.93c.14,1.1.29,2.22.43,3.34h.07c.19-1.12.4-2.24.61-3.34l1.14-4.93h2l1.15,4.93c.21,1.07.42,2.2.63,3.34h.06c.13-1.14.28-2.25.42-3.34l.73-4.93H44.2L42.32,172h-3l-1-4.79c-.16-.81-.31-1.67-.42-2.45h-.07c-.13.78-.26,1.64-.42,2.45l-1,4.79h-3Z"/><path class="cls-1" d="M44.67,161.45h6.62v2H47.07v2.11h3.59v2H47.07V170h4.38v2H44.67Z"/><path class="cls-1" d="M52.54,161.45h3.61c2.19,0,3.89.6,3.89,2.62a2.31,2.31,0,0,1-1.78,2.28v.07c1.51.27,2.3,1.06,2.3,2.47,0,2.15-1.81,3.11-4.11,3.11H52.54ZM56,165.7c1.17,0,1.68-.5,1.68-1.29s-.55-1.12-1.65-1.12H54.93v2.41Zm.23,4.45c1.29,0,2-.48,2-1.44s-.66-1.32-2-1.32H54.93v2.76Z"/><path class="cls-1" d="M64.43,169A4.23,4.23,0,0,0,67,170.13c1,0,1.47-.38,1.47-1s-.6-.88-1.52-1.27l-1.36-.58a3.05,3.05,0,0,1-2.13-2.88c0-1.74,1.57-3.13,3.75-3.13a4.88,4.88,0,0,1,3.4,1.39l-1.2,1.5a3.49,3.49,0,0,0-2.2-.84c-.81,0-1.34.36-1.34.95s.69.88,1.61,1.25l1.35.55a2.91,2.91,0,0,1,2.08,2.86c0,1.75-1.45,3.27-4,3.27a5.85,5.85,0,0,1-3.91-1.52Z"/><path class="cls-1" d="M71.73,161.45h6.61v2H74.12v2.11h3.59v2H74.12V170h4.39v2H71.73Z"/><path class="cls-1" d="M85.3,172l-2-3.81H82V172h-2.4V161.45h3.8c2.24,0,4.08.78,4.08,3.28a3.09,3.09,0,0,1-1.88,3L88,172ZM82,166.3H83.2c1.25,0,1.93-.53,1.93-1.57s-.68-1.39-1.93-1.39H82Z"/><path class="cls-1" d="M86.92,161.45h2.53l1.27,4.92c.31,1.15.52,2.21.84,3.38h.07c.32-1.17.53-2.23.84-3.38l1.25-4.92h2.44L93,172H90.11Z"/><path class="cls-1" d="M96.29,161.45h2.4V172h-2.4Z"/><path class="cls-1" d="M104.7,161.26a4.41,4.41,0,0,1,3.12,1.37l-1.3,1.47a2.53,2.53,0,0,0-1.78-.79c-1.48,0-2.62,1.28-2.62,3.4s1,3.42,2.55,3.42a2.62,2.62,0,0,0,2-.93l1.31,1.44a4.31,4.31,0,0,1-3.35,1.55c-2.73,0-5-1.86-5-5.4S102,161.26,104.7,161.26Z"/><path class="cls-1" d="M108.59,161.45h6.61v2H111v2.11h3.59v2H111V170h4.39v2h-6.78Z"/><path class="cls-1" d="M117.15,169a4.2,4.2,0,0,0,2.59,1.09c1,0,1.47-.38,1.47-1s-.6-.88-1.52-1.27l-1.36-.58a3.06,3.06,0,0,1-2.14-2.88c0-1.74,1.57-3.13,3.76-3.13a4.84,4.84,0,0,1,3.39,1.39l-1.19,1.5a3.49,3.49,0,0,0-2.2-.84c-.81,0-1.35.36-1.35.95s.7.88,1.62,1.25l1.34.55a2.91,2.91,0,0,1,2.09,2.86c0,1.75-1.46,3.27-4,3.27a5.87,5.87,0,0,1-3.92-1.52Z"/></g></g></g></svg>