<svg xmlns="http://www.w3.org/2000/svg" viewBox="0 0 350 158.43"><defs><style>.cls-1,.cls-2{fill:#111;}.cls-2{opacity:0.7;}</style></defs><g id="Layer_2" data-name="Layer 2"><g id="Layer_1-2" data-name="Layer 1"><path class="cls-1" d="M0,114.24l5.81-4.58a9.08,9.08,0,0,0,6.92,4c2.34,0,3.87-1.07,3.87-2.9,0-1.48-1.48-2.14-3.77-3.57L10,105.43C6.93,103.5,5.09,101.1,5.09,97c0-6,5.45-10.7,12.17-10.7a13.63,13.63,0,0,1,10.29,5.15l-5.09,4.78c-1.68-1.68-3.36-2.9-5.5-2.9-2.34,0-3.52,1.27-3.52,2.85,0,1.38,1.43,2,4.08,3.67l3.05,1.88c3.21,1.94,4.49,4,4.49,7.9,0,6.06-5,11-12.94,11A14.75,14.75,0,0,1,0,114.24Z"/><path class="cls-1" d="M29,108.69a37.7,37.7,0,0,1,.72-5.6L33,86.89h8.15l-3.56,17.83a24.11,24.11,0,0,0-.41,3.77c0,3.36,1,5.09,4.38,5.09,3,0,4.58-2.24,5.7-7.94L51,86.89H59L55.2,105.43c-2,10.39-6.32,15.18-13.85,15.18C33.1,120.61,29,116.84,29,108.69Z"/><path class="cls-1" d="M64.46,86.89h10.9c6.57,0,11.71,2.45,11.71,9.07,0,9.68-7.28,13.24-15.58,13.24H68.13L66,120H57.84Zm8,15.89c4.17,0,6.57-1.93,6.57-5.6,0-2.65-1.79-3.87-4.79-3.87h-3l-1.83,9.47Z"/><path class="cls-1" d="M92.77,86.89h20.17l-1.33,6.83H99.49l-1.12,5.8h10.29l-1.33,6.83H97.05l-1.43,6.82h12.53L106.83,120H86.15Z"/><path class="cls-1" d="M118,86.89h10.89c6.62,0,11.72,2.35,11.72,8.76a11.76,11.76,0,0,1-8,11.67L137.58,120H129l-3.81-11.41h-3.42L119.55,120H111.4Zm8,15.28c4.38,0,6.52-2.14,6.52-5.29,0-2.45-1.73-3.57-4.79-3.57h-3l-1.73,8.86Z"/><path class="cls-1" d="M152.65,86.89h9.78L165.58,120H157l-.21-7.54h-9.11L144.3,120h-9Zm-2.14,19.46h6.11l-.1-3.87c-.1-3.16-.2-6.11-.2-9.47h-.21c-1.32,3.26-2.44,6.31-3.87,9.47Z"/><path class="cls-1" d="M168.74,86.89h8.35l-1.33,15c-.35,3.46-.71,7.08-1.22,10.59h.21c1.32-3.51,2.9-7.18,4.17-10.59l6.26-15H192v15c-.1,3.36-.31,7-.51,10.59h.2c1.12-3.56,2.45-7.18,3.47-10.59l5-15h7.74L195.32,120H185l.41-14.16c0-2,.31-5.19.56-7.69h-.2c-.87,2.44-1.94,5.14-2.91,7.69L177.39,120H167.31Z"/><path class="cls-1" d="M210.79,86.89H231l-1.32,6.83H217.52l-1.12,5.8h10.28l-1.32,6.83H215.07l-1.42,6.82h12.52L224.85,120H204.17Z"/><path class="cls-1" d="M228.21,114.24l5.8-4.58a9.08,9.08,0,0,0,6.93,4c2.34,0,3.87-1.07,3.87-2.9,0-1.48-1.48-2.14-3.77-3.57l-2.85-1.78c-3.06-1.93-4.89-4.33-4.89-8.45,0-6,5.45-10.7,12.17-10.7a13.63,13.63,0,0,1,10.29,5.15l-5.1,4.78c-1.68-1.68-3.36-2.9-5.5-2.9-2.34,0-3.51,1.27-3.51,2.85,0,1.38,1.43,2,4.07,3.67l3.06,1.88c3.21,1.94,4.48,4,4.48,7.9,0,6.06-5,11-12.93,11A14.75,14.75,0,0,1,228.21,114.24Z"/><path class="cls-1" d="M256.31,106.55c0-12.32,8.35-20.27,17.11-20.27,7.64,0,12.84,5.1,12.84,14.06,0,12.32-8.36,20.27-17.11,20.27C261.51,120.61,256.31,115.51,256.31,106.55Zm21.59-5.7c0-4.79-1.83-7.54-4.88-7.54-3.77,0-8.36,5.09-8.36,12.73,0,4.79,1.84,7.54,4.89,7.54C273.32,113.58,277.9,108.49,277.9,100.85Z"/><path class="cls-1" d="M293.48,86.89h8.46l2.14,14.26.76,5.61h.2l2.91-5.61,7.74-14.26h8.45L317.52,120h-7.64l2.34-11a116.92,116.92,0,0,1,3.26-11.61h-.15l-4.12,7.74-7,12h-3.06l-2.14-12-1-7.74h-.15A111.64,111.64,0,0,1,296.54,109l-2.24,11h-7.44Z"/><path class="cls-1" d="M329.84,86.89H350l-1.32,6.83H336.56l-1.12,5.8h10.29l-1.33,6.83H334.11l-1.42,6.82h12.53L343.89,120H323.22Z"/><path class="cls-2" d="M67.59,144.37c0-11.81,8-20.26,17.83-20.26a10.1,10.1,0,0,1,9.06,5.39L89,133.78c-1.22-1.83-2.44-2.65-4-2.65-4.79,0-9.07,5.6-9.07,12.73,0,4.79,1.84,7.54,6.32,7.54a8.38,8.38,0,0,0,5.09-2.34l3.36,5.19a15.29,15.29,0,0,1-10.18,4.18C72.79,158.43,67.59,153.34,67.59,144.37Z"/><path class="cls-2" d="M99.87,124.72h10.9c6.62,0,11.71,2.34,11.71,8.76a11.74,11.74,0,0,1-8,11.66l4.94,12.68h-8.56l-3.82-11.41h-3.41l-2.24,11.41H93.25Zm8,15.27c4.38,0,6.52-2.13,6.52-5.29,0-2.45-1.73-3.57-4.79-3.57h-3L105,140Z"/><path class="cls-2" d="M170,124.72h-9.78l-17.14,32.77,1.26-6.5H131.85l1.43-6.82h10.28l1.33-6.82H134.6l1.12-5.81h12.12l1.32-6.82H129l-6.62,33.1h29.53l3.41-7.54h9.12l.2,7.54h8.56Zm-11.92,19.45,1.73-3.87c1.43-3.16,2.55-6.21,3.87-9.47h.21c0,3.36.1,6.31.2,9.47l.1,3.87Z"/><path class="cls-2" d="M182.26,131.54h-8.35l1.32-6.82h24.85l-1.32,6.82H190.4l-5.19,26.28h-8.15Z"/><path class="cls-2" d="M197.12,144.37c0-12.32,8.35-20.26,17.11-20.26,7.64,0,12.84,5.09,12.84,14,0,12.32-8.36,20.27-17.11,20.27C202.32,158.43,197.12,153.34,197.12,144.37Zm21.59-5.7c0-4.79-1.83-7.54-4.88-7.54-3.77,0-8.36,5.1-8.36,12.73,0,4.79,1.84,7.54,4.89,7.54C214.13,151.4,218.71,146.31,218.71,138.67Z"/><path class="cls-2" d="M234.29,124.72h10.9c6.62,0,11.71,2.34,11.71,8.76a11.74,11.74,0,0,1-8,11.66l4.94,12.68h-8.56l-3.82-11.41h-3.41l-2.24,11.41h-8.15ZM242.34,140c4.38,0,6.52-2.13,6.52-5.29,0-2.45-1.73-3.57-4.79-3.57h-2.95L239.39,140Z"/><path class="cls-2" d="M254.86,152.06l5.81-4.58a9.08,9.08,0,0,0,6.92,4c2.35,0,3.87-1.07,3.87-2.9,0-1.48-1.47-2.14-3.76-3.56l-2.86-1.79c-3-1.93-4.89-4.33-4.89-8.45,0-6,5.45-10.69,12.18-10.69a13.6,13.6,0,0,1,10.28,5.14L277.32,134c-1.68-1.69-3.36-2.91-5.5-2.91-2.34,0-3.51,1.28-3.51,2.86,0,1.37,1.42,2,4.07,3.66l3.06,1.89c3.2,1.93,4.48,4,4.48,7.89,0,6.06-5,11-12.94,11A14.75,14.75,0,0,1,254.86,152.06Z"/><path class="cls-1" d="M175,0a36.61,36.61,0,1,0,36.61,36.61A36.65,36.65,0,0,0,175,0Zm0,66a29.38,29.38,0,0,1-25.41-14.68h27.09a1.72,1.72,0,0,0,1.72-1.72V43.9l10.18,2.9v.43a1.63,1.63,0,1,0,3.26,0V26a1.63,1.63,0,0,0-3.26,0v.43L178.4,29.32V23.65a1.72,1.72,0,0,0-1.72-1.72H149.59A29.35,29.35,0,1,1,175,66ZM156.54,42.41V30.88a1.27,1.27,0,0,1,1.83-1.18l10.38,6.14a.9.9,0,0,1,.09,1.54l-10.45,6.07A1.2,1.2,0,0,1,156.54,42.41Z"/></g></g></svg>