<svg xmlns="http://www.w3.org/2000/svg" viewBox="0 0 314.95 144.6"><defs><style>.cls-1{fill:#111;}</style></defs><g id="Layer_2" data-name="Layer 2"><g id="Layer_1-2" data-name="Layer 1"><path class="cls-1" d="M158.37,92.78l-12.2-8.86H131.1l-4.66-14.34-12.19-8.86,4.66-14.33-4.66-14.34,12.19-8.86L131.1,8.86h15.07L158.37,0l12.19,8.86h15.07l4.66,14.33,12.2,8.86-4.66,14.34,4.66,14.33-12.2,8.86-4.66,14.34H170.56ZM137.6,75h11.48l9.29,6.75L167.65,75h11.48l3.55-10.92L192,57.3l-3.55-10.91L192,35.47l-9.29-6.75-3.55-10.91H167.65l-9.28-6.75-9.29,6.75H137.6l-3.54,10.91-9.29,6.75,3.55,10.92L124.77,57.3l9.29,6.75Z"/><path class="cls-1" d="M151.3,64.8,135.46,49a.59.59,0,0,1,0-.85l5.48-5.48a.6.6,0,0,1,.84,0l9.52,9.52a.61.61,0,0,0,.85,0l21-21a.6.6,0,0,1,.84,0l5.48,5.49a.6.6,0,0,1,0,.84L152.15,64.8A.59.59,0,0,1,151.3,64.8Z"/><path class="cls-1" d="M10.86,110.44H0l1.72-8.88H34l-1.72,8.88H21.45L14.7,144.6H4.1Z"/><path class="cls-1" d="M37.29,101.56H63.51l-1.72,8.88H46L44.58,118H58l-1.72,8.87H42.85L41,135.72H57.29l-1.73,8.88H28.69Z"/><path class="cls-1" d="M67,101.56H93.26l-1.72,8.88H75.78L74.33,118H87.7L86,126.85H72.6l-1.85,8.87H87l-1.72,8.88H58.44Z"/><path class="cls-1" d="M97,101.56h10.2l6,20.39,2.11,9.67h.27c.4-4.63.66-11.12,1.72-16.29l2.78-13.77h10.06l-8.6,43h-10.2l-6-20.39-2-9.67h-.27a138.57,138.57,0,0,1-1.85,16.15L98.5,144.6H88.44Z"/><path class="cls-1" d="M146,101.56h12.71l4.1,43H151.72l-.26-9.8H139.61l-4.44,9.8H123.52Zm-2.78,25.29h7.94l-.13-5c-.13-4.1-.27-7.94-.27-12.31h-.26c-1.72,4.24-3.18,8.21-5,12.31Z"/><path class="cls-1" d="M167.61,101.56h10.85L176.74,121c-.46,4.5-.93,9.2-1.59,13.77h.27c1.72-4.57,3.77-9.34,5.43-13.77L189,101.56h8.8V121c-.13,4.37-.39,9.13-.66,13.77h.27c1.45-4.64,3.17-9.34,4.5-13.77l6.49-19.47h10.06l-16.29,43H188.79l.53-18.41c0-2.58.4-6.75.73-10h-.27c-1.12,3.17-2.51,6.68-3.77,10l-7.15,18.41H165.75Z"/><path class="cls-1" d="M228.77,101.56h12.71l4.11,43H234.47l-.27-9.8H222.35l-4.43,9.8H206.26ZM226,126.85h7.95l-.14-5c-.13-4.1-.26-7.94-.26-12.31h-.27c-1.72,4.24-3.17,8.21-5,12.31Z"/><path class="cls-1" d="M252.76,101.56h14.17c8.61,0,15.23,3,15.23,11.39,0,8-4.37,12.84-10.4,15.16l6.43,16.49H267.06l-5-14.83h-4.44l-2.91,14.83H244.16Zm10.46,19.87c5.7,0,8.48-2.79,8.48-6.89,0-3.18-2.25-4.63-6.23-4.63h-3.83l-2.26,11.52Z"/><path class="cls-1" d="M288.73,101.56H315l-1.72,8.88H297.47L296,118h13.38l-1.73,8.87H294.29l-1.85,8.87h16.28L307,144.6H280.13Z"/></g></g></svg>