<svg xmlns="http://www.w3.org/2000/svg" viewBox="0 0 387.74 97.54"><defs><style>.cls-1{fill:#fff;}</style></defs><g id="Layer_2" data-name="Layer 2"><g id="Layer_1-2" data-name="Layer 1"><path class="cls-1" d="M46.06,97.54,33.33,88.11,17.48,88,12.73,72.84,0,63.4l5-15L.29,33.26l12.91-9.2,5-15,15.85.15L47,0,59.73,9.44l15.84.15,4.76,15.12,12.73,9.43-5,15,4.75,15.12L79.86,73.48l-5,15L59,88.35ZM24.41,78.61l12.07.12,9.69,7.19,9.84-7L68.08,79l3.83-11.44,9.84-7L78.13,49.07,82,37.63l-9.7-7.19L68.65,18.93l-12.07-.12-9.7-7.18-9.83,7L25,18.51,21.14,30l-9.83,7,3.62,11.51L11.09,59.91l9.7,7.19Z"/><path class="cls-1" d="M38.92,68.06,22.41,51.24a.62.62,0,0,1,0-.88l5.82-5.72a.64.64,0,0,1,.89,0L39,54.76a.63.63,0,0,0,.89,0L62.24,32.88a.63.63,0,0,1,.89,0l5.71,5.82a.63.63,0,0,1,0,.89l-29,28.47A.61.61,0,0,1,38.92,68.06Z"/><path class="cls-1" d="M117.81,27.68h10.64L125.19,44h.27l14.16-16.36h11.56L135.63,45.9l9.57,25h-11l-6.39-18.34-5.58,6.38-2.39,12H109.17Z"/><path class="cls-1" d="M156.62,27.68h10.64l-8.64,43.21H148Z"/><path class="cls-1" d="M171.6,27.68h10.11c12.09,0,19.41,5.32,19.41,17,0,17.55-10.37,26.19-23.93,26.19H163Zm5.32,34.7c7.18,0,13.29-4.52,13.29-17,0-6.78-3.72-9.18-8.77-9.18h-.93l-5.19,26.19Z"/><path class="cls-1" d="M223.3,61.05H211.4L207,70.89h-11.7l22.6-43.21h12.76l4.12,43.21H223.56Zm-.27-8-.13-5c-.13-4.13-.27-8-.27-12.37h-.26c-1.73,4.26-3.19,8.24-5.05,12.37l-2.26,5Z"/><path class="cls-1" d="M239.71,27.68h10.9l-1.72,19.55c-.47,4.52-.94,9.24-1.6,13.82h.27c1.72-4.58,3.78-9.37,5.45-13.82l8.17-19.55H270V47.23c-.13,4.39-.4,9.17-.66,13.82h.26c1.47-4.65,3.2-9.37,4.52-13.82l6.52-19.55h10.1L274.41,70.89H261l.53-18.48c0-2.59.4-6.78.74-10H262c-1.13,3.19-2.53,6.71-3.79,10L251,70.89H237.85Z"/><path class="cls-1" d="M305.84,61.05h-11.9l-4.46,9.84h-11.7l22.6-43.21h12.77l4.12,43.21H306.1Zm-.27-8-.13-5c-.14-4.13-.27-8-.27-12.37h-.26c-1.73,4.26-3.2,8.24-5.06,12.37l-2.26,5Z"/><path class="cls-1" d="M339.17,27.68c8.65,0,15.29,3.06,15.29,11.44,0,8-4.38,12.89-10.43,15.22l6.44,16.55H339.31l-5-14.89h-4.45l-2.93,14.89H316.31L325,27.68Zm-7.57,20h3.85c5.72,0,8.51-2.8,8.51-6.92,0-3.19-2.26-4.65-6.25-4.65h-3.85Z"/><path class="cls-1" d="M361.42,27.68h26.32L386,36.59H370.19l-1.46,7.58h13.43l-1.73,8.91H367L365.14,62h16.35l-1.73,8.91h-27Z"/></g></g></svg>