<svg xmlns="http://www.w3.org/2000/svg" viewBox="0 0 409.21 94.79"><defs><style>.cls-1{fill:#fff;}.cls-2{opacity:0.5;}</style></defs><g id="Layer_2" data-name="Layer 2"><g id="Layer_1-2" data-name="Layer 1"><path class="cls-1" d="M62.79,28.55H30.34a5.25,5.25,0,0,0-5.25,5.25V57.54a5.26,5.26,0,0,0,5.25,5.26H63l4.14,4.79a.53.53,0,0,0,.93-.34V33.8A5.26,5.26,0,0,0,62.79,28.55ZM54.64,46.18,41.4,53.88a1.52,1.52,0,0,1-2.34-1.32V37.94a1.61,1.61,0,0,1,2.32-1.49l13.15,7.78A1.14,1.14,0,0,1,54.64,46.18Z"/><path class="cls-1" d="M47.4,0A47.4,47.4,0,1,0,94.79,47.4,47.4,47.4,0,0,0,47.4,0Zm0,85A37.56,37.56,0,1,1,85,47.4,37.6,37.6,0,0,1,47.4,85Z"/><line class="cls-1" x1="240.36" y1="23.12" x2="240.36" y2="67.06"/><rect class="cls-1" x="239.85" y="23.12" width="1" height="43.94"/><path class="cls-1" d="M124.44,23.11h10.79L131.92,39.7h.27l14.36-16.59h11.74L142.51,41.59l9.71,25.35H141l-6.48-18.61-5.66,6.48-2.43,12.13H115.67Z"/><path class="cls-1" d="M152.63,59.32l7.68-6.07c2.3,3.17,5.8,5.33,9.17,5.33,3.1,0,5.13-1.41,5.13-3.84,0-2-2-2.83-5-4.72l-3.78-2.36c-4-2.56-6.47-5.73-6.47-11.2,0-7.88,7.21-14.16,16.12-14.16a18.06,18.06,0,0,1,13.62,6.82l-6.75,6.33c-2.22-2.22-4.45-3.84-7.28-3.84-3.1,0-4.65,1.69-4.65,3.78,0,1.82,1.88,2.63,5.39,4.85l4.05,2.5c4.25,2.56,5.93,5.32,5.93,10.45,0,8-6.61,14.56-17.13,14.56C163.08,67.75,157.21,65.46,152.63,59.32Z"/><path class="cls-1" d="M191.33,23.11h11.33l.81,20.5c.13,4.59.27,9.24.27,13.89H204c2-4.65,3.84-9.24,5.8-13.89l8.9-20.5h11.87L208.05,66.94H195Z"/><g class="cls-2"><polygon class="cls-1" points="255.47 36.65 257.63 33.79 262.13 41.62 266.72 41.62 260.09 30.49 265.69 23.1 261.09 23.1 255.57 30.66 255.47 30.66 255.47 23.1 251.29 23.1 251.29 41.62 255.47 41.62 255.47 36.65"/><rect class="cls-1" x="267.59" y="23.1" width="4.19" height="18.52"/><path class="cls-1" d="M289.54,32.28c0-6.37-3.65-9.18-9.3-9.18H275V41.61h5.47C285.89,41.61,289.54,38.64,289.54,32.28Zm-10.35,6V26.47h.8c3.14,0,5.26,1.38,5.26,5.81s-2.12,6-5.26,6Z"/><path class="cls-1" d="M297.66,38.34a7.42,7.42,0,0,1-4.55-1.93l-2.4,2.87A10.23,10.23,0,0,0,297.57,42c4.41,0,7-2.67,7-5.74,0-2.62-1.41-4.13-3.67-5l-2.36-.95c-1.61-.65-2.83-1.06-2.83-2.2s.92-1.66,2.37-1.66a6.06,6.06,0,0,1,3.84,1.45L304,25.19a8.53,8.53,0,0,0-5.95-2.43c-3.86,0-6.6,2.45-6.6,5.52a5.39,5.39,0,0,0,3.74,5l2.41,1c1.61.66,2.67,1,2.67,2.2S299.41,38.34,297.66,38.34Z"/><path class="cls-1" d="M260.25,56.6l-2.36-1c-1.61-.64-2.82-1-2.82-2.19s.92-1.66,2.36-1.66a6,6,0,0,1,3.84,1.45l2.11-2.64a8.53,8.53,0,0,0-5.95-2.43c-3.85,0-6.6,2.45-6.6,5.52a5.41,5.41,0,0,0,3.74,5.05l2.41,1c1.61.66,2.67,1,2.67,2.2s-.86,1.79-2.61,1.79a7.33,7.33,0,0,1-4.54-1.94l-2.41,2.87A10.18,10.18,0,0,0,257,67.37c4.41,0,7-2.66,7-5.74C263.93,59,262.51,57.51,260.25,56.6Z"/><path class="cls-1" d="M273.48,48.17c-5,0-8.41,3.47-8.41,9.52s3.42,9.68,8.41,9.68,8.41-3.63,8.41-9.68S278.47,48.17,273.48,48.17Zm0,15.59c-2.53,0-4.12-2.35-4.12-6.07s1.59-5.9,4.12-5.9,4.12,2.19,4.12,5.9S276,63.76,273.48,63.76Z"/><path class="cls-1" d="M292.13,63.76c-2.7,0-4.48-2.21-4.48-6s2-6,4.55-6a4.68,4.68,0,0,1,3.27,1.47l2.2-2.68a7.78,7.78,0,0,0-5.57-2.41c-4.67,0-8.74,3.57-8.74,9.71s3.93,9.49,8.62,9.49a7.62,7.62,0,0,0,6-2.72L295.75,62A4.87,4.87,0,0,1,292.13,63.76Z"/><rect class="cls-1" x="299.64" y="48.52" width="4.19" height="18.52"/><path class="cls-1" d="M310.5,48.52,304.68,67H309l1.14-4.41h5.65L316.89,67h4.43L315.5,48.52ZM311,59.37l.44-1.72c.52-1.85,1-4,1.46-6H313c.5,1.93,1,4.12,1.51,6l.44,1.72Z"/><polygon class="cls-1" points="326.15 48.52 321.96 48.52 321.96 67.03 333.46 67.03 333.46 63.52 326.15 63.52 326.15 48.52"/><path class="cls-1" d="M347.44,57.14c-.53,2-.92,3.9-1.48,5.94h-.12c-.56-2-.93-3.91-1.48-5.94l-2.23-8.62H337.7L343.29,67h5l5.59-18.51h-4.28Z"/><rect class="cls-1" x="354.52" y="48.52" width="4.19" height="18.52"/><path class="cls-1" d="M367.17,48.52h-5.24V67h5.47c5.42,0,9.06-3,9.06-9.34S372.82,48.52,367.17,48.52Zm-.26,15.14h-.79V51.89h.79c3.14,0,5.27,1.38,5.27,5.8S370.05,63.66,366.91,63.66Z"/><polygon class="cls-1" points="383.02 59.26 389.33 59.26 389.33 55.74 383.02 55.74 383.02 52.02 390.44 52.02 390.44 48.52 378.83 48.52 378.83 67.03 390.72 67.03 390.72 63.52 383.02 63.52 383.02 59.26"/><path class="cls-1" d="M400.8,48.17c-5,0-8.41,3.47-8.41,9.52s3.42,9.68,8.41,9.68,8.41-3.63,8.41-9.68S405.79,48.17,400.8,48.17Zm0,15.59c-2.53,0-4.12-2.35-4.12-6.07s1.59-5.9,4.12-5.9,4.12,2.19,4.12,5.9S403.32,63.76,400.8,63.76Z"/></g></g></g></svg>