<svg xmlns="http://www.w3.org/2000/svg" viewBox="0 0 535.78 104.33"><defs><style>.cls-1{fill:#fff;}</style></defs><g id="Layer_2" data-name="Layer 2"><g id="Layer_1-2" data-name="Layer 1"><path class="cls-1" d="M116.42,30.13h14.51c8.75,0,15.6,3.26,15.6,12.07,0,12.88-9.7,17.63-20.75,17.63h-4.47L118.46,74.2H107.61Zm10.65,21.16c5.56,0,8.74-2.58,8.74-7.46,0-3.53-2.37-5.15-6.37-5.15h-3.93l-2.44,12.61Z"/><path class="cls-1" d="M164,64.17H151.83l-4.54,10H135.36l23-44.07h13l4.2,44.07H164.24ZM163.7,56l-.14-5.15c-.13-4.2-.27-8.14-.27-12.61H163c-1.76,4.34-3.25,8.41-5.15,12.61L155.56,56Z"/><path class="cls-1" d="M198.48,30.13c8.81,0,15.59,3.12,15.59,11.66,0,8.21-4.47,13.16-10.64,15.53L210,74.2H198.61L193.53,59H189L186,74.2H175.16L184,30.13Zm-7.73,20.34h3.93c5.83,0,8.68-2.85,8.68-7,0-3.25-2.31-4.74-6.37-4.74h-3.94Z"/><path class="cls-1" d="M221.41,30.13h26.85l-1.77,9.09H230.36L228.87,47h13.69L240.8,56H227.1l-1.89,9.09h16.67l-1.76,9.08H212.6Z"/><path class="cls-1" d="M251.51,30.13H262L268.05,51l2.17,9.9h.27c.41-4.74.68-11.39,1.76-16.68l2.85-14.1h10.31L276.59,74.2H266.15l-6.1-20.88-2-9.9h-.27A145.37,145.37,0,0,1,255.85,60L253,74.2H242.7Z"/><path class="cls-1" d="M298,39.22H286.87l1.76-9.09h33.09L320,39.22H308.84l-6.92,35H291.07Z"/><path class="cls-1" d="M338.85,30.13h14.51c8.75,0,15.59,3.26,15.59,12.07,0,12.88-9.69,17.63-20.74,17.63h-4.48L340.89,74.2H330ZM349.5,51.29c5.55,0,8.74-2.58,8.74-7.46,0-3.53-2.37-5.15-6.37-5.15h-3.93L345.5,51.29Z"/><path class="cls-1" d="M366.37,56.3c0-16.4,11.11-27,22.78-27,10.16,0,17.08,6.78,17.08,18.71,0,16.41-11.12,27-22.78,27C373.28,75,366.37,68.23,366.37,56.3Zm11.11-.68c0,6.38,2.45,10,6.51,10,5,0,11.12-6.78,11.12-16.95,0-6.37-2.44-10-6.51-10C383.59,38.68,377.48,45.45,377.48,55.62Z"/><path class="cls-1" d="M428.29,30.13c8.81,0,15.59,3.12,15.59,11.66,0,8.21-4.48,13.16-10.64,15.53l6.57,16.88H428.42L423.34,59H418.8l-3,15.19H405l8.82-44.07Zm-7.73,20.34h3.93c5.83,0,8.68-2.85,8.68-7,0-3.25-2.31-4.74-6.38-4.74h-3.93Z"/><path class="cls-1" d="M456.3,39.22H445.18L447,30.13H480l-1.76,9.09H467.15l-6.91,35H449.39Z"/><path class="cls-1" d="M492.67,64.17H480.54L476,74.2H464.06l23.05-44.07h13l4.2,44.07H492.94ZM492.4,56l-.14-5.15c-.13-4.2-.27-8.14-.27-12.61h-.27c-1.76,4.34-3.25,8.41-5.15,12.61L484.26,56Z"/><path class="cls-1" d="M516,30.13h10.85l-7.05,35h16L534,74.2H507.17Z"/><path class="cls-1" d="M45,104.33l-2.57-1.5C-3.22,76.21-.27,27.65.21,22.2l.27-3L45,0,89.42,19.18l.27,3c.48,5.45,3.43,54-42.17,80.63ZM10.19,26.08C9.9,37,11.77,71.47,45,92.48,78.13,71.47,80,37,79.71,26.08L45,11.09Z"/><path class="cls-1" d="M54.39,64.23a20,20,0,1,0-18.88,0,20.08,20.08,0,0,0-9.8,12.17L45,95.89,64.19,76.4A20.08,20.08,0,0,0,54.39,64.23Z"/></g></g></svg>